<?xml version="1.0" encoding="UTF-8"?>
<svg xmlns="http://www.w3.org/2000/svg" xmlns:xlink="http://www.w3.org/1999/xlink" width="150px" height="150px" viewBox="0 0 150 150" version="1.1">
<defs>
<clipPath id="clip1">
  <path d="M 0.265625 0 L 149.714844 0 L 149.714844 149.734375 L 0.265625 149.734375 Z M 0.265625 0 "/>
</clipPath>
<clipPath id="clip2">
  <path d="M 0.265625 0 L 149.714844 0 L 149.714844 149.472656 L 0.265625 149.472656 Z M 0.265625 0 "/>
</clipPath>
<clipPath id="clip3">
  <path d="M 27.183594 24.386719 L 124.898438 24.386719 L 124.898438 110.550781 L 27.183594 110.550781 Z M 27.183594 24.386719 "/>
</clipPath>
<clipPath id="clip4">
  <path d="M 1.476562 69.75 L 11.363281 69.75 L 11.363281 79.636719 L 1.476562 79.636719 Z M 1.476562 69.75 "/>
</clipPath>
<clipPath id="clip5">
  <path d="M 138.554688 69.75 L 148.441406 69.75 L 148.441406 79.636719 L 138.554688 79.636719 Z M 138.554688 69.75 "/>
</clipPath>
</defs>
<g id="surface1">
<g clip-path="url(#clip1)" clip-rule="nonzero">
<path style=" stroke:none;fill-rule:nonzero;fill:rgb(0%,0%,0%);fill-opacity:1;" d="M 0.265625 0 L 149.734375 0 L 149.734375 149.472656 L 0.265625 149.472656 Z M 0.265625 0 "/>
</g>
<g clip-path="url(#clip2)" clip-rule="nonzero">
<path style=" stroke:none;fill-rule:nonzero;fill:rgb(100%,100%,100%);fill-opacity:1;" d="M 0.265625 0 L 149.734375 0 L 149.734375 149.472656 L 0.265625 149.472656 Z M 0.265625 0 "/>
<path style=" stroke:none;fill-rule:nonzero;fill:rgb(0%,0%,0%);fill-opacity:1;" d="M 0.265625 0 L 149.734375 0 L 149.734375 149.472656 L 0.265625 149.472656 Z M 0.265625 0 "/>
</g>
<path style=" stroke:none;fill-rule:nonzero;fill:rgb(36.862745%,9.019608%,92.156863%);fill-opacity:1;" d="M 13.804688 62.585938 L 15.332031 57.15625 C 16.109375 54.402344 15.542969 53.023438 13.527344 52.453125 C 12.140625 52.0625 11.144531 52.707031 10.566406 53.65625 C 10.441406 52.464844 9.949219 51.96875 8.75 51.632812 C 7.191406 51.191406 5.988281 52.070312 5.316406 54.445312 L 3.816406 59.773438 L 5.660156 60.289062 L 5.890625 59.464844 L 12.179688 61.234375 L 11.945312 62.0625 Z M 6.769531 56.515625 L 7.023438 55.617188 C 7.175781 55.074219 7.671875 54.78125 8.332031 54.96875 C 9.015625 55.160156 9.371094 55.492188 9.15625 56.25 L 8.910156 57.121094 Z M 13.011719 58.277344 L 10.527344 57.578125 L 10.835938 56.476562 C 11.058594 55.691406 11.703125 55.425781 12.433594 55.628906 C 13.203125 55.847656 13.503906 56.535156 13.335938 57.136719 Z M 13.011719 58.277344 "/>
<path style=" stroke:none;fill-rule:nonzero;fill:rgb(36.862745%,9.019608%,92.156863%);fill-opacity:1;" d="M 22.25 41.34375 L 20.523438 40.457031 L 20.046875 41.382812 L 11.34375 39.886719 L 8.75 44.960938 L 10.453125 45.832031 L 10.730469 45.289062 L 15.625 50.042969 L 15.164062 50.941406 L 16.894531 51.824219 L 19.042969 47.621094 L 17.3125 46.738281 L 16.785156 47.769531 L 16.027344 47.03125 L 17.414062 44.320312 L 18.453125 44.503906 L 17.8125 45.757812 L 19.542969 46.644531 Z M 14.691406 45.730469 L 12.273438 43.414062 L 15.574219 44 Z M 14.691406 45.730469 "/>
<path style=" stroke:none;fill-rule:nonzero;fill:rgb(36.862745%,9.019608%,92.156863%);fill-opacity:1;" d="M 21.265625 25.808594 L 15.066406 33.601562 L 18.085938 36.003906 L 19.445312 34.296875 L 17.957031 33.113281 L 18.753906 32.117188 L 23.792969 36.125 L 23.035156 37.078125 L 24.582031 38.308594 L 28.019531 33.984375 L 26.472656 32.757812 L 25.707031 33.722656 L 20.664062 29.710938 L 21.441406 28.734375 L 22.925781 29.917969 L 24.285156 28.210938 Z M 21.265625 25.808594 "/>
<path style=" stroke:none;fill-rule:nonzero;fill:rgb(36.862745%,9.019608%,92.156863%);fill-opacity:1;" d="M 23.730469 23.210938 L 24.988281 24.675781 L 25.621094 24.132812 L 28.007812 26.917969 C 30.203125 29.476562 32.441406 29.625 34.777344 27.742188 C 36.894531 25.921875 36.976562 23.761719 34.683594 21.089844 L 32.335938 18.351562 L 32.941406 17.832031 L 31.695312 16.378906 L 28.363281 19.238281 L 29.636719 20.726562 L 30.246094 20.203125 L 32.296875 22.59375 C 33.957031 24.53125 33.742188 25.1875 33.050781 25.777344 C 32.332031 26.394531 31.597656 26.359375 30.042969 24.546875 L 27.953125 22.113281 L 28.5625 21.59375 L 27.316406 20.136719 Z M 23.730469 23.210938 "/>
<path style=" stroke:none;fill-rule:nonzero;fill:rgb(36.862745%,9.019608%,92.156863%);fill-opacity:1;" d="M 45.253906 11.449219 L 45.660156 12.226562 L 47.972656 16.613281 L 47.238281 17 L 48.136719 18.707031 L 52.285156 16.519531 L 51.386719 14.8125 L 50.664062 15.195312 L 47.617188 9.414062 L 48.34375 9.035156 L 47.449219 7.339844 L 42.445312 9.976562 L 43.773438 15.554688 L 39.859375 11.339844 L 34.882812 13.960938 L 35.773438 15.65625 L 36.46875 15.292969 L 39.519531 21.082031 L 38.8125 21.457031 L 39.707031 23.148438 L 43.265625 21.273438 L 42.371094 19.578125 L 41.625 19.972656 L 38.898438 14.800781 L 38.949219 14.773438 C 39.332031 15.410156 39.898438 16.066406 40.082031 16.257812 L 44.3125 20.71875 L 47.058594 19.273438 L 45.746094 13.4375 C 45.679688 13.085938 45.40625 12.125 45.199219 11.476562 Z M 45.253906 11.449219 "/>
<path style=" stroke:none;fill-rule:nonzero;fill:rgb(36.862745%,9.019608%,92.156863%);fill-opacity:1;" d="M 51.15625 6.265625 L 51.738281 8.136719 L 52.632812 7.859375 L 54.539062 14.011719 L 53.644531 14.289062 L 54.230469 16.175781 L 58.9375 14.71875 L 58.351562 12.832031 L 57.472656 13.105469 L 55.566406 6.949219 L 56.445312 6.679688 L 55.863281 4.804688 Z M 51.15625 6.265625 "/>
<path style=" stroke:none;fill-rule:nonzero;fill:rgb(36.862745%,9.019608%,92.156863%);fill-opacity:1;" d="M 70.195312 9.417969 C 70.121094 8.972656 69.8125 7.21875 69.628906 6.511719 L 69.175781 4.355469 L 70.039062 4.328125 L 69.976562 2.398438 L 65.078125 2.550781 L 65.140625 4.484375 L 65.972656 4.457031 L 68.195312 12.835938 L 71.636719 12.730469 L 72.429688 9.140625 C 72.519531 8.707031 72.683594 7.765625 72.726562 7.320312 L 72.789062 7.316406 C 72.878906 7.773438 73.066406 8.644531 73.214844 9.144531 L 74.214844 12.648438 L 77.734375 12.539062 L 79.679688 4.027344 L 80.496094 4 L 80.433594 2.074219 L 76.191406 2.207031 L 76.253906 4.132812 L 77.070312 4.109375 L 76.632812 6.378906 C 76.519531 7.007812 76.316406 8.558594 76.277344 9.226562 L 76.203125 9.230469 C 76.105469 8.492188 75.90625 7.277344 75.667969 6.320312 L 74.605469 2.253906 L 71.519531 2.351562 L 70.882812 5.710938 C 70.628906 7.132812 70.285156 9 70.269531 9.417969 Z M 70.195312 9.417969 "/>
<path style=" stroke:none;fill-rule:nonzero;fill:rgb(36.862745%,9.019608%,92.156863%);fill-opacity:1;" d="M 93.375 15.125 L 93.765625 13.222656 L 92.746094 13.011719 L 91.878906 4.222656 L 86.296875 3.074219 L 85.910156 4.945312 L 86.503906 5.070312 L 83.226562 11.046875 L 82.238281 10.84375 L 81.84375 12.75 L 86.464844 13.703125 L 86.859375 11.796875 L 85.726562 11.566406 L 86.234375 10.640625 L 89.214844 11.253906 L 89.316406 12.304688 L 87.9375 12.019531 L 87.542969 13.925781 Z M 87.132812 9.003906 L 88.726562 6.058594 L 89.039062 9.398438 Z M 87.132812 9.003906 "/>
<path style=" stroke:none;fill-rule:nonzero;fill:rgb(36.862745%,9.019608%,92.156863%);fill-opacity:1;" d="M 99.09375 6.1875 L 98.324219 7.972656 L 99.089844 8.304688 L 96.527344 14.25 L 95.761719 13.917969 L 94.988281 15.71875 L 99.390625 17.617188 L 100.167969 15.816406 L 99.335938 15.457031 L 100.246094 13.347656 C 101.460938 13.867188 101.480469 14.234375 100.945312 15.472656 C 100.257812 17.070312 100.710938 18.378906 102.496094 19.148438 C 104.011719 19.800781 104.941406 18.957031 105.429688 17.824219 L 105.75 17.074219 L 104.835938 16.683594 L 104.644531 17.128906 C 104.527344 17.402344 104.347656 17.519531 104.140625 17.433594 C 103.894531 17.328125 103.960938 16.949219 104.214844 16.363281 C 104.636719 15.382812 104.144531 14.203125 103.261719 13.660156 C 104.464844 13.984375 105.632812 13.597656 106.089844 12.535156 C 106.761719 10.980469 106.6875 9.460938 103.523438 8.097656 Z M 101.902344 9.5 L 102.582031 9.796875 C 103.375 10.132812 103.648438 10.738281 103.300781 11.542969 C 102.992188 12.265625 102.308594 12.425781 101.515625 12.082031 L 100.902344 11.820312 Z M 101.902344 9.5 "/>
<path style=" stroke:none;fill-rule:nonzero;fill:rgb(36.862745%,9.019608%,92.156863%);fill-opacity:1;" d="M 111.878906 12.109375 L 110.78125 13.714844 L 111.464844 14.183594 L 107.808594 19.523438 L 107.125 19.054688 L 106.015625 20.667969 L 109.972656 23.382812 L 111.078125 21.761719 L 110.332031 21.253906 L 111.632812 19.351562 C 112.722656 20.101562 112.671875 20.460938 111.90625 21.578125 C 110.925781 23.007812 111.121094 24.382812 112.722656 25.480469 C 114.085938 26.414062 115.160156 25.765625 115.855469 24.746094 L 116.316406 24.074219 L 115.496094 23.511719 L 115.21875 23.917969 C 115.050781 24.160156 114.851562 24.242188 114.667969 24.113281 C 114.449219 23.964844 114.585938 23.605469 114.945312 23.082031 C 115.550781 22.199219 115.292969 20.945312 114.53125 20.242188 C 115.648438 20.792969 116.871094 20.636719 117.523438 19.683594 C 118.480469 18.285156 118.703125 16.78125 115.859375 14.835938 Z M 113.996094 15.898438 L 114.609375 16.320312 C 115.320312 16.804688 115.472656 17.449219 114.976562 18.171875 C 114.53125 18.820312 113.832031 18.847656 113.125 18.359375 L 112.570312 17.984375 Z M 113.996094 15.898438 "/>
<path style=" stroke:none;fill-rule:nonzero;fill:rgb(36.862745%,9.019608%,92.156863%);fill-opacity:1;" d="M 122.992188 20.304688 L 121.648438 21.734375 L 122.332031 22.375 L 117.917969 27.066406 L 117.238281 26.425781 L 115.886719 27.863281 L 119.476562 31.238281 L 120.828125 29.800781 L 120.15625 29.171875 L 124.570312 24.476562 L 125.238281 25.109375 L 126.582031 23.679688 Z M 122.992188 20.304688 "/>
<path style=" stroke:none;fill-rule:nonzero;fill:rgb(36.862745%,9.019608%,92.156863%);fill-opacity:1;" d="M 123.960938 36.839844 C 126.023438 39.488281 128.789062 39.703125 131.433594 37.640625 C 134.070312 35.585938 134.75 32.914062 132.511719 30.042969 C 130.625 27.617188 127.566406 27.292969 125.039062 29.265625 C 122.109375 31.546875 122.054688 34.394531 123.960938 36.839844 Z M 125.796875 35.410156 C 125.214844 34.660156 125.757812 33.351562 127.289062 32.15625 C 128.742188 31.023438 130.15625 30.714844 130.703125 31.4375 C 131.40625 32.335938 130.570312 33.609375 129.152344 34.714844 C 127.703125 35.84375 126.375 36.148438 125.796875 35.410156 Z M 125.796875 35.410156 "/>
<path style=" stroke:none;fill-rule:nonzero;fill:rgb(36.862745%,9.019608%,92.156863%);fill-opacity:1;" d="M 137.566406 37.601562 L 135.832031 38.480469 L 136.207031 39.222656 L 130.433594 42.140625 L 130.054688 41.402344 L 128.308594 42.28125 L 130.472656 46.5625 L 132.21875 45.679688 L 131.808594 44.871094 L 133.863281 43.832031 C 134.460938 45.011719 134.242188 45.304688 133.035156 45.914062 C 131.484375 46.699219 130.992188 47.992188 131.871094 49.730469 C 132.613281 51.199219 133.867188 51.148438 134.96875 50.589844 L 135.699219 50.222656 L 135.25 49.335938 L 134.8125 49.558594 C 134.546875 49.691406 134.332031 49.664062 134.234375 49.46875 C 134.113281 49.230469 134.402344 48.980469 134.972656 48.695312 C 135.925781 48.210938 136.308594 46.988281 135.976562 46.007812 C 136.691406 47.027344 137.835938 47.480469 138.871094 46.957031 C 140.378906 46.195312 141.296875 44.984375 139.746094 41.90625 Z M 137.597656 41.945312 L 137.933594 42.605469 C 138.324219 43.375 138.148438 44.011719 137.367188 44.40625 C 136.664062 44.761719 136.035156 44.445312 135.648438 43.679688 L 135.347656 43.082031 Z M 137.597656 41.945312 "/>
<path style=" stroke:none;fill-rule:nonzero;fill:rgb(36.862745%,9.019608%,92.156863%);fill-opacity:1;" d="M 133.585938 53.167969 L 134.296875 55.667969 L 135.441406 55.511719 C 134.953125 56.238281 134.566406 57.425781 134.976562 58.871094 C 135.457031 60.570312 136.851562 62.425781 139.078125 61.792969 C 142.433594 60.835938 140.484375 55.28125 141.953125 54.863281 C 142.453125 54.71875 142.871094 55.21875 142.988281 55.632812 C 143.277344 56.632812 142.910156 57.628906 141.851562 57.929688 L 142.589844 60.515625 L 146.171875 59.492188 L 145.472656 57.039062 L 144.234375 57.238281 C 145.140625 56.359375 145.183594 55.039062 144.84375 53.839844 C 144.441406 52.441406 142.917969 50.710938 140.804688 51.3125 C 137.164062 52.351562 139.195312 57.699219 138.082031 58.015625 C 137.480469 58.183594 137.164062 57.503906 137.023438 57.003906 C 136.878906 56.398438 136.738281 55.140625 137.9375 54.800781 L 137.183594 52.144531 Z M 133.585938 53.167969 "/>
<path style=" stroke:none;fill-rule:nonzero;fill:rgb(36.862745%,9.019608%,92.156863%);fill-opacity:1;" d="M 5.433594 92.167969 L 13.039062 89.511719 L 13.824219 91.769531 L 6.21875 94.421875 Z M 5.433594 92.167969 "/>
<path style=" stroke:none;fill-rule:nonzero;fill:rgb(36.862745%,9.019608%,92.156863%);fill-opacity:1;" d="M 14.574219 100.765625 C 14.765625 100.390625 14.875 100.003906 14.902344 99.601562 C 14.929688 99.203125 14.871094 98.855469 14.730469 98.558594 C 14.574219 98.234375 14.351562 97.980469 14.058594 97.796875 C 13.773438 97.617188 13.445312 97.519531 13.078125 97.5 C 12.707031 97.488281 12.335938 97.570312 11.96875 97.742188 C 11.605469 97.917969 11.3125 98.148438 11.09375 98.445312 C 10.878906 98.734375 10.746094 99.050781 10.695312 99.394531 C 10.648438 99.742188 10.707031 100.078125 10.859375 100.402344 C 10.992188 100.679688 11.207031 100.9375 11.503906 101.179688 C 11.808594 101.421875 12.152344 101.605469 12.53125 101.734375 L 11.8125 103.609375 C 11.183594 103.414062 10.609375 103.09375 10.09375 102.660156 C 9.574219 102.230469 9.183594 101.742188 8.925781 101.195312 C 8.582031 100.46875 8.4375 99.734375 8.488281 98.988281 C 8.539062 98.25 8.769531 97.574219 9.191406 96.964844 C 9.609375 96.351562 10.179688 95.875 10.902344 95.535156 C 11.605469 95.203125 12.328125 95.074219 13.058594 95.144531 C 13.796875 95.210938 14.46875 95.464844 15.078125 95.90625 C 15.683594 96.347656 16.160156 96.9375 16.507812 97.675781 C 16.765625 98.21875 16.910156 98.820312 16.9375 99.476562 C 16.964844 100.136719 16.871094 100.746094 16.65625 101.304688 Z M 14.574219 100.765625 "/>
<path style=" stroke:none;fill-rule:nonzero;fill:rgb(36.862745%,9.019608%,92.156863%);fill-opacity:1;" d="M 12.03125 106.78125 L 18.761719 102.355469 L 22.375 107.855469 L 20.835938 108.863281 L 18.539062 105.359375 L 17.488281 106.050781 L 19.570312 109.234375 L 18.035156 110.242188 L 15.949219 107.0625 L 14.882812 107.761719 L 17.25 111.367188 L 15.710938 112.375 Z M 12.03125 106.78125 "/>
<path style=" stroke:none;fill-rule:nonzero;fill:rgb(36.862745%,9.019608%,92.156863%);fill-opacity:1;" d="M 21.09375 118.972656 L 26.730469 113.21875 L 28.433594 114.898438 L 26.195312 117.1875 L 28.238281 119.1875 L 30.476562 116.898438 L 32.179688 118.570312 L 26.542969 124.324219 L 24.839844 122.652344 L 26.9375 120.511719 L 24.898438 118.511719 L 22.796875 120.652344 Z M 21.09375 118.972656 "/>
<path style=" stroke:none;fill-rule:nonzero;fill:rgb(36.862745%,9.019608%,92.156863%);fill-opacity:1;" d="M 37.320312 122.304688 C 38 122.792969 38.503906 123.378906 38.839844 124.058594 C 39.175781 124.738281 39.3125 125.445312 39.246094 126.183594 C 39.183594 126.914062 38.925781 127.601562 38.46875 128.242188 C 38.011719 128.886719 37.445312 129.359375 36.765625 129.65625 C 36.089844 129.957031 35.367188 130.0625 34.609375 129.96875 C 33.851562 129.875 33.136719 129.585938 32.460938 129.101562 C 31.78125 128.617188 31.277344 128.03125 30.945312 127.347656 C 30.617188 126.664062 30.480469 125.957031 30.542969 125.214844 C 30.605469 124.472656 30.867188 123.777344 31.328125 123.132812 C 31.785156 122.496094 32.351562 122.03125 33.03125 121.734375 C 33.707031 121.4375 34.421875 121.339844 35.171875 121.4375 C 35.925781 121.535156 36.640625 121.824219 37.320312 122.304688 Z M 36.195312 123.945312 C 35.910156 123.742188 35.585938 123.628906 35.230469 123.613281 C 34.875 123.59375 34.527344 123.664062 34.1875 123.828125 C 33.84375 123.988281 33.554688 124.234375 33.320312 124.5625 C 33.082031 124.894531 32.9375 125.25 32.890625 125.628906 C 32.84375 126.011719 32.886719 126.367188 33.011719 126.703125 C 33.144531 127.039062 33.355469 127.308594 33.640625 127.515625 C 33.921875 127.714844 34.238281 127.816406 34.59375 127.828125 C 34.949219 127.839844 35.289062 127.757812 35.617188 127.582031 C 35.949219 127.410156 36.234375 127.15625 36.476562 126.820312 C 36.710938 126.488281 36.859375 126.140625 36.914062 125.777344 C 36.976562 125.410156 36.941406 125.0625 36.808594 124.738281 C 36.679688 124.40625 36.476562 124.140625 36.195312 123.945312 Z M 36.195312 123.945312 "/>
<path style=" stroke:none;fill-rule:nonzero;fill:rgb(36.862745%,9.019608%,92.156863%);fill-opacity:1;" d="M 46.417969 131.210938 C 46.339844 130.800781 46.191406 130.425781 45.972656 130.097656 C 45.75 129.761719 45.496094 129.515625 45.203125 129.367188 C 44.878906 129.203125 44.542969 129.136719 44.203125 129.171875 C 43.859375 129.199219 43.539062 129.320312 43.234375 129.535156 C 42.9375 129.746094 42.699219 130.03125 42.515625 130.394531 C 42.328125 130.753906 42.238281 131.117188 42.246094 131.484375 C 42.25 131.847656 42.335938 132.183594 42.507812 132.484375 C 42.679688 132.78125 42.925781 133.015625 43.253906 133.179688 C 43.519531 133.316406 43.851562 133.386719 44.238281 133.394531 C 44.621094 133.40625 45.003906 133.347656 45.386719 133.222656 L 45.941406 135.15625 C 45.332031 135.375 44.691406 135.472656 44.011719 135.445312 C 43.335938 135.417969 42.726562 135.265625 42.195312 134.992188 C 41.476562 134.621094 40.914062 134.125 40.5 133.503906 C 40.085938 132.882812 39.863281 132.207031 39.832031 131.46875 C 39.796875 130.730469 39.960938 130.003906 40.328125 129.292969 C 40.675781 128.601562 41.164062 128.058594 41.789062 127.664062 C 42.417969 127.273438 43.105469 127.070312 43.855469 127.054688 C 44.605469 127.035156 45.34375 127.207031 46.070312 127.582031 C 46.605469 127.859375 47.082031 128.25 47.503906 128.757812 C 47.925781 129.265625 48.222656 129.804688 48.386719 130.378906 Z M 46.417969 131.210938 "/>
<path style=" stroke:none;fill-rule:nonzero;fill:rgb(36.862745%,9.019608%,92.156863%);fill-opacity:1;" d="M 54.28125 134.609375 L 55.667969 140.15625 L 52.964844 139.230469 L 52.140625 135.808594 L 50.964844 136.460938 L 50.328125 138.328125 L 48.070312 137.5625 L 50.675781 129.9375 L 52.933594 130.707031 L 51.890625 133.757812 L 55.488281 131.582031 L 58.101562 132.46875 Z M 54.28125 134.609375 "/>
<path style=" stroke:none;fill-rule:nonzero;fill:rgb(36.862745%,9.019608%,92.156863%);fill-opacity:1;" d="M 58.578125 140.839844 L 60.066406 132.925781 L 66.53125 134.140625 L 66.191406 135.945312 L 62.074219 135.175781 L 61.84375 136.414062 L 65.582031 137.117188 L 65.242188 138.929688 L 61.503906 138.226562 L 61.265625 139.480469 L 65.5 140.277344 L 65.160156 142.078125 Z M 58.578125 140.839844 "/>
<path style=" stroke:none;fill-rule:nonzero;fill:rgb(36.862745%,9.019608%,92.156863%);fill-opacity:1;" d="M 74.003906 134.664062 L 76.382812 134.78125 L 73.226562 140.128906 L 73.101562 142.683594 L 70.722656 142.566406 L 70.835938 140.0625 L 68.152344 134.382812 L 70.539062 134.5 L 72.136719 137.863281 Z M 74.003906 134.664062 "/>
<path style=" stroke:none;fill-rule:nonzero;fill:rgb(36.862745%,9.019608%,92.156863%);fill-opacity:1;" d="M 82.347656 136.296875 L 82.050781 134.417969 L 89.054688 133.320312 L 89.351562 135.195312 L 87.027344 135.558594 L 87.980469 141.636719 L 85.605469 142.007812 L 84.65625 135.929688 Z M 82.347656 136.296875 "/>
<path style=" stroke:none;fill-rule:nonzero;fill:rgb(36.862745%,9.019608%,92.156863%);fill-opacity:1;" d="M 93.195312 140.601562 L 90.90625 132.878906 L 97.214844 131.011719 L 97.734375 132.773438 L 93.71875 133.964844 L 94.082031 135.179688 L 97.726562 134.09375 L 98.246094 135.855469 L 94.601562 136.9375 L 94.964844 138.164062 L 99.089844 136.9375 L 99.613281 138.699219 Z M 93.195312 140.601562 "/>
<path style=" stroke:none;fill-rule:nonzero;fill:rgb(36.862745%,9.019608%,92.156863%);fill-opacity:1;" d="M 110.503906 133.972656 L 108.191406 135.039062 L 107.222656 134.0625 L 104.269531 135.425781 L 104.371094 136.804688 L 102.136719 137.839844 L 101.875 129.085938 L 104.105469 128.050781 Z M 103.933594 130.761719 L 104.136719 133.574219 L 105.914062 132.746094 Z M 103.933594 130.761719 "/>
<path style=" stroke:none;fill-rule:nonzero;fill:rgb(36.862745%,9.019608%,92.156863%);fill-opacity:1;" d="M 113.078125 132.519531 L 108.53125 125.871094 L 110.644531 124.425781 L 114.945312 126.890625 L 114.199219 121.996094 L 116.316406 120.546875 L 120.863281 127.195312 L 119.128906 128.378906 L 116.433594 124.433594 L 117.160156 128.765625 L 115.878906 129.640625 L 112.109375 127.386719 L 114.804688 131.328125 Z M 113.078125 132.519531 "/>
<path style=" stroke:none;fill-rule:nonzero;fill:rgb(36.862745%,9.019608%,92.156863%);fill-opacity:1;" d="M 127.898438 118.023438 L 130.074219 115.683594 L 131.4375 116.949219 L 127.195312 121.503906 L 126.074219 120.476562 L 125.867188 116.351562 C 125.847656 116.0625 125.808594 115.796875 125.742188 115.558594 C 125.675781 115.324219 125.589844 115.152344 125.476562 115.046875 C 125.339844 114.921875 125.195312 114.875 125.039062 114.90625 C 124.878906 114.933594 124.722656 115.03125 124.566406 115.195312 C 124.351562 115.425781 124.179688 115.746094 124.046875 116.15625 C 123.914062 116.558594 123.832031 117.011719 123.800781 117.519531 L 121.929688 116.996094 C 122.144531 115.558594 122.636719 114.429688 123.402344 113.609375 C 123.777344 113.207031 124.175781 112.910156 124.601562 112.714844 C 125.027344 112.523438 125.441406 112.445312 125.847656 112.484375 C 126.253906 112.523438 126.609375 112.6875 126.914062 112.980469 C 127.222656 113.265625 127.445312 113.65625 127.585938 114.152344 C 127.722656 114.648438 127.804688 115.257812 127.832031 115.972656 Z M 127.898438 118.023438 "/>
<path style=" stroke:none;fill-rule:nonzero;fill:rgb(36.862745%,9.019608%,92.156863%);fill-opacity:1;" d="M 128.84375 106.960938 C 129.523438 106.007812 130.332031 105.476562 131.277344 105.371094 C 132.214844 105.269531 133.21875 105.601562 134.292969 106.363281 C 135.367188 107.125 136.011719 107.96875 136.226562 108.894531 C 136.449219 109.820312 136.21875 110.761719 135.542969 111.714844 C 134.859375 112.679688 134.046875 113.210938 133.113281 113.308594 C 132.175781 113.40625 131.164062 113.066406 130.078125 112.300781 C 129.003906 111.535156 128.359375 110.695312 128.144531 109.78125 C 127.929688 108.867188 128.164062 107.925781 128.84375 106.960938 Z M 130.269531 107.96875 C 130.019531 108.320312 129.992188 108.675781 130.175781 109.027344 C 130.359375 109.378906 130.800781 109.808594 131.5 110.308594 C 132.199219 110.804688 132.746094 111.082031 133.144531 111.144531 C 133.542969 111.199219 133.863281 111.050781 134.113281 110.695312 C 134.359375 110.351562 134.386719 110 134.195312 109.648438 C 134.007812 109.296875 133.5625 108.871094 132.863281 108.375 C 132.164062 107.875 131.621094 107.59375 131.226562 107.539062 C 130.835938 107.480469 130.515625 107.621094 130.269531 107.96875 Z M 130.269531 107.96875 "/>
<path style=" stroke:none;fill-rule:nonzero;fill:rgb(36.862745%,9.019608%,92.156863%);fill-opacity:1;" d="M 138.914062 102.53125 L 140.394531 99.710938 L 142.039062 100.578125 L 139.144531 106.085938 L 137.78125 105.390625 L 136.507812 101.464844 C 136.414062 101.183594 136.304688 100.9375 136.183594 100.726562 C 136.058594 100.519531 135.925781 100.378906 135.789062 100.304688 C 135.621094 100.21875 135.46875 100.210938 135.324219 100.28125 C 135.183594 100.347656 135.058594 100.480469 134.953125 100.679688 C 134.804688 100.960938 134.71875 101.316406 134.695312 101.746094 C 134.675781 102.175781 134.71875 102.636719 134.820312 103.132812 L 132.871094 103.117188 C 132.703125 101.675781 132.882812 100.457031 133.40625 99.464844 C 133.667969 98.980469 133.976562 98.585938 134.332031 98.289062 C 134.691406 97.988281 135.074219 97.800781 135.472656 97.734375 C 135.875 97.664062 136.265625 97.726562 136.640625 97.925781 C 137.007812 98.121094 137.324219 98.4375 137.589844 98.882812 C 137.855469 99.332031 138.09375 99.898438 138.300781 100.585938 Z M 138.914062 102.53125 "/>
<path style=" stroke:none;fill-rule:nonzero;fill:rgb(36.862745%,9.019608%,92.156863%);fill-opacity:1;" d="M 142.601562 94.328125 L 143.714844 91.335938 L 145.460938 91.988281 L 143.277344 97.816406 L 141.839844 97.296875 L 140.078125 93.558594 C 139.953125 93.300781 139.8125 93.078125 139.664062 92.882812 C 139.511719 92.691406 139.363281 92.566406 139.21875 92.511719 C 139.042969 92.445312 138.886719 92.457031 138.757812 92.542969 C 138.625 92.625 138.519531 92.773438 138.441406 92.980469 C 138.332031 93.277344 138.292969 93.644531 138.324219 94.074219 C 138.355469 94.5 138.449219 94.949219 138.605469 95.429688 L 136.679688 95.652344 C 136.339844 94.246094 136.363281 93.019531 136.753906 91.972656 C 136.949219 91.457031 137.207031 91.027344 137.523438 90.683594 C 137.84375 90.34375 138.199219 90.113281 138.589844 89.996094 C 138.976562 89.878906 139.367188 89.890625 139.765625 90.039062 C 140.160156 90.1875 140.515625 90.464844 140.832031 90.875 C 141.144531 91.28125 141.457031 91.8125 141.757812 92.460938 Z M 142.601562 94.328125 "/>
<g clip-path="url(#clip3)" clip-rule="nonzero">
<path style=" stroke:none;fill-rule:nonzero;fill:rgb(100%,100%,100%);fill-opacity:1;" d="M 107.386719 39.578125 L 108.132812 38.519531 L 108.847656 40.707031 C 110.394531 45.464844 110.453125 50.003906 108.871094 53.359375 C 108.894531 53.613281 108.890625 53.875 108.855469 54.140625 L 108.839844 54.265625 L 106.261719 61.378906 L 105.988281 61.585938 C 104.675781 62.574219 103.25 63.195312 101.726562 63.433594 L 101.285156 65.4375 C 101.78125 65.648438 102.378906 65.875 103.101562 66.144531 C 104.238281 66.566406 105.574219 67.0625 107.078125 67.734375 C 110.113281 69.089844 113.828125 71.167969 117.980469 74.828125 C 123.488281 78.527344 125.554688 83.730469 124.679688 88.628906 C 125.796875 92.070312 122.457031 94.71875 121.632812 94.953125 C 114.355469 96.96875 106.46875 94.691406 99.46875 89.128906 L 99.375 89.628906 C 99.140625 90.863281 98.808594 92.484375 98.257812 93.644531 C 98.132812 93.929688 97.835938 94.273438 97.242188 94.515625 L 72.230469 110.550781 L 51.246094 97.097656 C 46.738281 96.648438 41.027344 96.03125 37.835938 94.542969 C 33.433594 92.777344 29.476562 89.746094 28.648438 88.539062 C 25.675781 83.207031 27.074219 73.355469 34.195312 69.542969 C 34.34375 66.265625 35.472656 65.101562 37.171875 63.894531 C 37.941406 60.550781 41.523438 58.171875 44.160156 57.832031 C 46.394531 55.28125 47.703125 54.171875 50.390625 53.929688 C 52.132812 52.640625 55.40625 51.8125 58.179688 51.539062 C 58.035156 50.617188 58.027344 49.8125 58.195312 49.179688 C 58.378906 48.519531 58.773438 48.027344 59.296875 47.792969 C 59.332031 46.664062 59.367188 45.574219 59.457031 44.539062 C 59.582031 43.152344 59.8125 41.78125 60.320312 40.523438 C 61.296875 38.109375 63.199219 36.320312 66.644531 35.351562 L 65.535156 24.570312 L 74.5 24.386719 L 74.851562 24.917969 C 77.34375 28.695312 78.199219 32.402344 78.449219 35.824219 C 82.910156 37.515625 84.296875 42.085938 84.097656 47.53125 C 84.582031 47.835938 84.921875 48.355469 85.078125 48.722656 C 85.433594 49.542969 85.585938 50.671875 85.59375 51.75 C 85.601562 52.839844 85.460938 54.039062 85.113281 55.027344 C 84.921875 55.582031 84.589844 56.253906 84.042969 56.722656 C 84.433594 56.792969 84.800781 56.875 85.15625 56.988281 C 85.867188 57.214844 86.53125 57.566406 87.179688 58.128906 C 88.859375 58.355469 89.960938 58.839844 91.503906 59.769531 C 91.78125 59.828125 92.078125 59.898438 92.378906 59.988281 L 92.445312 60.003906 C 91.800781 59.128906 91.335938 58.125 91.125 57.03125 L 91.097656 56.886719 L 91.554688 50.171875 C 90.269531 46.472656 90.589844 42.386719 92.363281 37.988281 L 93.152344 36.023438 L 93.886719 37.058594 C 94.105469 36.058594 94.488281 35.046875 95.03125 34.03125 L 95.761719 32.652344 L 96.375 33.265625 C 96.367188 32.945312 96.363281 32.625 96.359375 32.3125 C 96.355469 31.613281 96.359375 30.886719 96.308594 30.101562 C 96.261719 29.347656 96.167969 28.535156 95.972656 27.636719 L 95.492188 25.378906 L 97.589844 26.347656 C 99.75 27.347656 101.4375 29.375 102.738281 32.234375 L 103.089844 30.359375 L 104.664062 32.621094 C 106.132812 34.730469 107.039062 37.054688 107.386719 39.578125 "/>
</g>
<path style=" stroke:none;fill-rule:evenodd;fill:rgb(36.862745%,9.019608%,92.156863%);fill-opacity:1;" d="M 72.230469 109.179688 L 97.207031 93.167969 L 47.257812 93.167969 Z M 72.230469 109.179688 "/>
<path style=" stroke:none;fill-rule:evenodd;fill:rgb(92.941176%,45.882353%,10.980392%);fill-opacity:1;" d="M 106.332031 55.058594 C 109.117188 52.167969 109.660156 46.933594 107.75 41.066406 L 106.367188 43.015625 C 106.570312 39.351562 105.6875 36.105469 103.71875 33.28125 L 103.089844 36.644531 C 101.699219 31.679688 99.703125 28.597656 97.105469 27.394531 C 97.925781 31.242188 97.070312 33.585938 98.035156 36.558594 L 96.046875 34.570312 C 94.90625 36.726562 94.566406 38.761719 95.027344 40.671875 L 93.433594 38.417969 C 91.425781 43.402344 91.425781 47.796875 93.433594 51.605469 L 106.332031 55.058594 "/>
<path style=" stroke:none;fill-rule:evenodd;fill:rgb(100%,100%,100%);fill-opacity:1;" d="M 105.183594 52.410156 C 106.5 50.9375 106.632812 47.589844 105.816406 45.734375 L 104.5 48.675781 C 104.28125 45.53125 103.386719 43.300781 102.238281 41.894531 C 102.101562 44.519531 101.730469 45.886719 101.132812 45.996094 C 100.613281 42.917969 99.773438 40.8125 98.605469 39.6875 C 98.613281 43.46875 98.265625 45.675781 97.554688 46.3125 L 96.554688 44.894531 C 95.277344 46.609375 95.257812 48.636719 95.761719 50.253906 L 105.183594 52.410156 "/>
<path style=" stroke:none;fill-rule:evenodd;fill:rgb(36.862745%,9.019608%,92.156863%);fill-opacity:1;" d="M 100.773438 62.378906 L 95.238281 87.472656 C 94.367188 87.84375 93.4375 87.742188 92.449219 87.15625 L 95.390625 61.191406 C 93.804688 60.179688 92.601562 58.613281 92.261719 56.816406 L 92.722656 50.011719 C 94.195312 46.226562 108.34375 49.257812 107.710938 53.988281 L 105.292969 60.664062 C 103.898438 61.710938 102.394531 62.28125 100.773438 62.378906 "/>
<path style=" stroke:none;fill-rule:evenodd;fill:rgb(36.862745%,9.019608%,92.156863%);fill-opacity:1;" d="M 82.621094 57.683594 L 82.65625 56.128906 C 85.167969 55.84375 84.824219 47.261719 82.878906 48.617188 C 83.34375 42.429688 81.902344 37.957031 77.34375 36.675781 C 77.175781 33.171875 76.425781 29.398438 73.886719 25.554688 L 66.8125 25.699219 L 67.894531 36.226562 C 60.316406 37.886719 60.628906 42.953125 60.417969 48.886719 C 59.339844 48.433594 58.828125 49.683594 59.585938 52.605469 C 56.488281 52.703125 52.40625 53.667969 50.828125 55.054688 C 48.257812 55.203125 47.214844 56.066406 44.71875 58.941406 C 42.375 58.992188 38.65625 61.394531 38.222656 64.566406 C 36.402344 65.824219 35.339844 66.636719 35.335938 70.265625 C 28.363281 73.480469 26.832031 82.914062 29.632812 87.933594 C 30.269531 88.863281 33.964844 91.753906 38.296875 93.484375 C 42.875 95.636719 53.480469 95.925781 57.5 96.65625 L 65.824219 100.929688 C 69.144531 101.21875 73.003906 102.292969 76.605469 100.910156 C 78.183594 100.304688 78.089844 97.59375 79.589844 96.800781 C 84.914062 93.984375 96.699219 94.320312 97.207031 93.167969 C 98.160156 91.152344 98.480469 87.207031 98.792969 87.066406 C 105.945312 93.320312 114.027344 95.863281 121.320312 93.84375 C 121.824219 93.699219 124.582031 91.425781 123.484375 88.726562 C 124.414062 84.226562 122.609375 79.296875 117.277344 75.742188 C 109.117188 68.535156 102.753906 67.625 99.957031 66.074219 C 98.367188 62.894531 98 64.414062 94.824219 63.199219 C 93.992188 61.5 92.300781 61.121094 91.070312 60.855469 C 89.40625 59.84375 88.414062 59.414062 86.664062 59.230469 C 85.457031 58.027344 84.257812 57.898438 82.621094 57.683594 "/>
<path style=" stroke:none;fill-rule:evenodd;fill:rgb(100%,100%,100%);fill-opacity:1;" d="M 77.59375 48.703125 C 74.644531 48.8125 73.277344 50.351562 71.578125 51.660156 C 69.457031 50.375 67.902344 49.707031 66.917969 49.65625 C 67.660156 51.316406 70.980469 51.859375 71.070312 52.816406 L 71.070312 56.550781 C 70.457031 57.445312 70.945312 58.78125 72.804688 58.511719 C 72.921875 58.425781 74.015625 57.648438 74.015625 57.648438 C 74.777344 57.988281 73.28125 58.640625 72.695312 59.230469 L 71.722656 59.519531 L 71.71875 60.492188 L 72.410156 60.28125 C 73.316406 60.707031 75.132812 60.5625 75.332031 60.921875 C 75.058594 61.101562 73.738281 61.210938 71.648438 61.175781 C 70.964844 61.214844 71.425781 62.382812 72.046875 62.3125 C 72.777344 62.425781 73.453125 62.34375 74.082031 62.058594 L 74.492188 62.617188 C 70.1875 62.511719 70.429688 64.675781 70.941406 65.753906 C 71.734375 66.535156 72.585938 66.460938 73.8125 65.828125 C 74.136719 65.574219 74.378906 65.023438 74.539062 64.167969 C 74.769531 64.585938 74.828125 65.019531 74.734375 65.234375 C 75.785156 64.601562 77.066406 62.953125 78.726562 61.035156 C 79.078125 59.523438 79.148438 58.082031 78.941406 56.710938 C 78.378906 57.261719 77.773438 57.546875 77.136719 57.574219 C 78.296875 56.511719 79.046875 55.523438 79.375 54.613281 C 79.601562 53.085938 79.609375 51.742188 79.398438 50.585938 C 79.011719 49.316406 78.578125 48.667969 77.59375 48.703125 "/>
<path style=" stroke:none;fill-rule:evenodd;fill:rgb(100%,100%,100%);fill-opacity:1;" d="M 67.65625 54.636719 C 66.894531 54.550781 66.15625 54.105469 65.4375 53.308594 C 65.527344 54.542969 65.753906 55.339844 66.109375 55.695312 L 67.667969 56.566406 L 67.65625 54.636719 "/>
<path style=" stroke:none;fill-rule:evenodd;fill:rgb(100%,100%,100%);fill-opacity:1;" d="M 68.503906 57.640625 L 67.425781 58.597656 C 67.046875 59.246094 66.929688 59.988281 67.066406 60.824219 L 68.105469 61.460938 C 67.890625 60.273438 68.023438 59 68.503906 57.640625 "/>
<path style=" stroke:none;fill-rule:evenodd;fill:rgb(100%,100%,100%);fill-opacity:1;" d="M 67.191406 52.53125 L 66.257812 52.609375 C 67.066406 53.679688 68.015625 54.152344 69.554688 53.460938 L 68.976562 53.03125 C 68.5 54.023438 66.835938 53.765625 67.191406 52.53125 "/>
<path style=" stroke:none;fill-rule:evenodd;fill:rgb(100%,100%,100%);fill-opacity:1;" d="M 60.765625 50.546875 L 61.070312 54.542969 C 60.484375 53.550781 60.074219 51.148438 60.097656 49.875 C 60.429688 49.652344 60.652344 49.875 60.765625 50.546875 "/>
<path style=" stroke:none;fill-rule:evenodd;fill:rgb(100%,100%,100%);fill-opacity:1;" d="M 51.941406 56.273438 C 58.078125 56.5625 61.035156 60.601562 65.097656 65.269531 L 68.617188 67.957031 C 66.90625 69.574219 67.292969 71.90625 69.484375 73.511719 C 59.449219 70.839844 47.535156 64.351562 40.535156 64.351562 C 43.492188 59.300781 59.234375 69.253906 65.007812 70.839844 C 60.746094 67.742188 54.757812 63.457031 46.527344 59.738281 C 51.507812 58.4375 62.121094 68.101562 66.667969 69.6875 C 61.179688 65.074219 59.449219 60.582031 51.941406 56.273438 "/>
<path style=" stroke:none;fill-rule:evenodd;fill:rgb(100%,100%,100%);fill-opacity:1;" d="M 78.867188 62.1875 C 77.132812 64.625 75.3125 66.25 73.417969 67.054688 C 74.464844 67.199219 74.382812 67.527344 75.835938 68.824219 C 76.753906 68.292969 77.761719 66.082031 78.867188 62.1875 "/>
<path style=" stroke:none;fill-rule:evenodd;fill:rgb(100%,100%,100%);fill-opacity:1;" d="M 75.402344 37.886719 C 74.175781 38.894531 73.695312 39.648438 73.164062 40.988281 L 71.71875 40.988281 L 71.71875 50.792969 C 73.640625 48.742188 76.214844 47.25 79.445312 48.054688 C 80.527344 48.773438 80.695312 50.902344 80.457031 53.96875 L 80.023438 62.042969 L 81.394531 59.375 L 81.828125 47.261719 C 82.015625 41.152344 80.496094 38.511719 75.402344 37.886719 "/>
<path style=" stroke:none;fill-rule:evenodd;fill:rgb(36.862745%,9.019608%,92.156863%);fill-opacity:1;" d="M 78.203125 51.082031 C 75.039062 50.738281 74.214844 52.324219 73.328125 52.542969 L 72.714844 52.054688 L 72.785156 53.894531 C 73.140625 54.433594 74.125 54.15625 74.734375 54.148438 C 74.21875 53.960938 73.847656 53.707031 73.632812 53.390625 L 74.289062 53.175781 C 74.609375 54.125 76.191406 54.101562 76.355469 52.945312 L 77.925781 53.238281 C 77.609375 52.824219 77.027344 52.546875 76.183594 52.402344 C 76.292969 52.050781 76.964844 51.609375 78.203125 51.082031 "/>
<path style=" stroke:none;fill-rule:evenodd;fill:rgb(100%,100%,100%);fill-opacity:1;" d="M 70.113281 56.996094 C 69.980469 57.480469 70.183594 57.855469 70.386719 58.148438 C 69.792969 58.121094 69.308594 58.023438 69.300781 57.574219 C 69.28125 57.304688 69.558594 57.027344 70.113281 56.996094 "/>
<path style=" stroke:none;fill-rule:evenodd;fill:rgb(100%,100%,100%);fill-opacity:1;" d="M 67.820312 26.855469 L 71.144531 28.65625 L 72.191406 38.96875 L 73.164062 26.710938 L 67.820312 26.855469 "/>
<path style=" stroke:none;fill-rule:evenodd;fill:rgb(100%,100%,100%);fill-opacity:1;" d="M 74.03125 28.222656 L 72.769531 39.976562 C 73.769531 36.992188 75.03125 35.765625 76.558594 36.300781 C 76.363281 33.542969 75.519531 30.847656 74.03125 28.222656 "/>
<path style=" stroke:none;fill-rule:evenodd;fill:rgb(100%,100%,100%);fill-opacity:1;" d="M 83.308594 49.640625 C 82.894531 49.585938 82.410156 51.640625 82.152344 54.652344 C 83.199219 50.648438 83.246094 53.191406 83.742188 51.15625 C 83.851562 50.144531 83.667969 49.964844 83.308594 49.640625 "/>
<path style=" stroke:none;fill-rule:evenodd;fill:rgb(36.862745%,9.019608%,92.156863%);fill-opacity:1;" d="M 71.070312 42.863281 C 73.941406 42.535156 77.804688 43.296875 82.117188 47.546875 C 79.589844 42.140625 73.601562 41.113281 71.289062 41.636719 L 71.070312 42.863281 "/>
<path style=" stroke:none;fill-rule:evenodd;fill:rgb(100%,100%,100%);fill-opacity:1;" d="M 36.777344 71.273438 C 31.4375 75.023438 29.28125 80.199219 30.933594 86.128906 C 38.488281 93.035156 46.671875 91.96875 59.375 94.640625 L 62.839844 85.769531 C 54.507812 84.507812 51.578125 79.351562 38.367188 76.324219 C 40.25 75.964844 46.910156 76.875 49.992188 78.628906 C 50.929688 77.300781 50.738281 75.761719 49.414062 74.015625 C 47.660156 71.433594 39.597656 70.769531 36.777344 71.273438 "/>
<path style=" stroke:none;fill-rule:evenodd;fill:rgb(100%,100%,100%);fill-opacity:1;" d="M 100.792969 70.109375 L 92.574219 69.910156 C 91.429688 70.492188 91.363281 71.554688 92.375 73.101562 L 98.082031 73.4375 C 98.527344 73.859375 98.527344 74.175781 98.082031 74.390625 L 92.332031 74.050781 C 91.300781 74.925781 91.523438 76.980469 92.65625 77.257812 L 97.328125 77.652344 C 97.742188 78.222656 97.695312 78.558594 97.195312 78.652344 L 92.476562 78.304688 C 91.375 79.257812 91.46875 80.1875 92.765625 81.082031 L 96.660156 81.515625 C 97.109375 81.808594 97.039062 82.0625 96.441406 82.265625 L 92.574219 82.265625 C 91.53125 82.722656 91.644531 83.921875 92.6875 85.046875 L 98.191406 85.28125 C 99.515625 85.230469 100.347656 83.003906 99.40625 81.765625 C 100.84375 80.261719 100.847656 79.160156 100.09375 78.125 C 101.210938 77.222656 101.382812 75.171875 100.527344 74.121094 C 101.355469 72.421875 101.621094 70.894531 100.792969 70.109375 "/>
<path style=" stroke:none;fill-rule:evenodd;fill:rgb(100%,100%,100%);fill-opacity:1;" d="M 102.511719 74.953125 C 105.824219 75.328125 110.652344 76.691406 115.542969 77.988281 C 119.230469 79.070312 121.203125 82.375 121.453125 87.902344 C 122.3125 92.667969 118.417969 93.546875 109.769531 90.542969 C 105.074219 87.574219 104.167969 84.636719 104.640625 83.171875 C 109.875 85.03125 114.050781 86.582031 114.921875 85.996094 L 102.4375 80.503906 C 102.78125 79.648438 102.976562 78.789062 102.222656 78.015625 C 102.785156 77.332031 102.851562 76.027344 102.511719 74.953125 "/>
<path style=" stroke:none;fill-rule:evenodd;fill:rgb(100%,100%,100%);fill-opacity:1;" d="M 93.488281 66.945312 L 90.960938 66.675781 L 88.089844 68.554688 C 88.03125 70.058594 88.914062 70.605469 90.746094 70.191406 L 91.5 69.039062 L 93.488281 69.039062 L 93.488281 66.945312 "/>
<path style=" stroke:none;fill-rule:evenodd;fill:rgb(36.862745%,9.019608%,92.156863%);fill-opacity:1;" d="M 119.875 92.546875 C 118.316406 90.773438 115.789062 89.375 112.292969 88.363281 C 115.675781 90.960938 117.457031 92.453125 117.636719 92.835938 L 119.875 92.546875 "/>
<path style=" stroke:none;fill-rule:nonzero;fill:rgb(100%,100%,100%);fill-opacity:1;" d="M 75.042969 53.121094 C 75.042969 52.96875 75.164062 52.851562 75.3125 52.851562 C 75.460938 52.851562 75.582031 52.96875 75.582031 53.121094 C 75.582031 53.269531 75.460938 53.390625 75.3125 53.390625 C 75.164062 53.390625 75.042969 53.269531 75.042969 53.121094 "/>
<path style=" stroke:none;fill-rule:nonzero;fill:rgb(100%,100%,100%);fill-opacity:1;" d="M 67.582031 52.90625 C 67.582031 52.753906 67.703125 52.636719 67.851562 52.636719 C 68.003906 52.636719 68.125 52.753906 68.125 52.90625 C 68.125 53.054688 68.003906 53.175781 67.851562 53.175781 C 67.703125 53.175781 67.582031 53.054688 67.582031 52.90625 "/>
<path style=" stroke:none;fill-rule:evenodd;fill:rgb(100%,100%,100%);fill-opacity:1;" d="M 37.933594 69.398438 C 38.800781 63.628906 47.6875 65.777344 52.40625 70.914062 C 46.949219 68.984375 41.691406 68.09375 37.933594 69.398438 "/>
<path style=" stroke:none;fill-rule:evenodd;fill:rgb(100%,100%,100%);fill-opacity:1;" d="M 82.585938 59.699219 C 82.585938 61.863281 80.355469 63.769531 80.355469 63.769531 C 79.878906 65.9375 78.6875 67.992188 75.65625 70.445312 C 75.691406 71.417969 75.945312 72.429688 79.957031 71.890625 C 83.496094 72.6875 87.523438 72.875 89.160156 72.019531 C 87.53125 71.273438 86.558594 70.25 87.097656 68.75 L 90.5625 65.898438 L 91.90625 65.898438 C 92.167969 64.90625 91.972656 63.160156 90.042969 62.476562 C 88.945312 61.632812 87.492188 61.058594 85.996094 61.230469 C 85.359375 59.960938 84.371094 59.523438 82.585938 59.699219 "/>
<path style=" stroke:none;fill-rule:evenodd;fill:rgb(100%,100%,100%);fill-opacity:1;" d="M 106.976562 53.828125 C 105.503906 49.835938 96.417969 48.875 93.574219 50.753906 L 93.398438 55.511719 C 96.605469 53.988281 103.578125 55.324219 105.210938 58.796875 L 106.976562 53.828125 "/>
<path style=" stroke:none;fill-rule:evenodd;fill:rgb(100%,100%,100%);fill-opacity:1;" d="M 98.195312 69.632812 L 100.171875 60.675781 L 99.238281 59.085938 L 98.027344 60.292969 L 96.710938 69.546875 L 98.195312 69.632812 "/>
<path style=" stroke:none;fill-rule:evenodd;fill:rgb(100%,100%,100%);fill-opacity:1;" d="M 104.660156 60.136719 C 104.386719 57.621094 98.546875 55.203125 95.550781 55.984375 C 98.839844 56.703125 103.5 57.824219 103.710938 60.714844 L 104.660156 60.136719 "/>
<path style=" stroke:none;fill-rule:nonzero;fill:rgb(36.862745%,9.019608%,92.156863%);fill-opacity:1;" d="M 103.683594 52.597656 L 101.945312 54.402344 L 102.296875 52.019531 C 102.78125 52.1875 103.25 52.382812 103.683594 52.597656 Z M 101.007812 51.644531 L 99.777344 53.5625 L 99.554688 51.359375 C 100.042969 51.433594 100.53125 51.527344 101.007812 51.644531 Z M 98.597656 51.246094 L 97.613281 53.5 L 97.089844 51.179688 C 97.578125 51.179688 98.085938 51.199219 98.597656 51.246094 Z M 96.25 51.210938 L 95.328125 53.679688 L 94.753906 51.417969 C 95.214844 51.316406 95.71875 51.25 96.25 51.210938 Z M 105.734375 54.097656 L 104.167969 55.660156 L 104.652344 53.164062 C 105.066406 53.441406 105.433594 53.753906 105.734375 54.097656 "/>
<path style=" stroke:none;fill-rule:evenodd;fill:rgb(36.862745%,9.019608%,92.156863%);fill-opacity:1;" d="M 85.90625 60.78125 C 84.882812 64.492188 79.519531 69.183594 75.691406 71.851562 C 79.589844 70.550781 84.554688 66.652344 86.988281 60.960938 L 85.90625 60.78125 "/>
<path style=" stroke:none;fill-rule:evenodd;fill:rgb(100%,100%,100%);fill-opacity:1;" d="M 102.875 69.832031 C 106.816406 70.839844 110.941406 73.339844 114.316406 75.890625 L 102.980469 73.402344 C 103.308594 72.464844 103.511719 70.941406 102.875 69.832031 "/>
<path style=" stroke:none;fill-rule:evenodd;fill:rgb(100%,100%,100%);fill-opacity:1;" d="M 63.347656 49.710938 L 63.707031 60.746094 L 62.769531 60.167969 L 62.550781 50.144531 L 63.347656 49.710938 "/>
<path style=" stroke:none;fill-rule:evenodd;fill:rgb(100%,100%,100%);fill-opacity:1;" d="M 70.277344 42.535156 C 67.777344 43.285156 65.402344 43.992188 63.164062 44.664062 C 65.066406 43.488281 67.449219 42.597656 70.3125 41.996094 L 70.277344 42.535156 "/>
<path style=" stroke:none;fill-rule:evenodd;fill:rgb(100%,100%,100%);fill-opacity:1;" d="M 96.867188 37.90625 C 95.539062 39.796875 95.644531 41.410156 97.183594 42.738281 C 97.34375 40.949219 96.34375 40.320312 96.867188 37.90625 "/>
<path style=" stroke:none;fill-rule:evenodd;fill:rgb(100%,100%,100%);fill-opacity:1;" d="M 93.765625 41.207031 C 92.828125 43.316406 93.238281 44.878906 95.003906 45.890625 C 94.816406 44.101562 93.714844 43.675781 93.765625 41.207031 "/>
<path style=" stroke:none;fill-rule:evenodd;fill:rgb(100%,100%,100%);fill-opacity:1;" d="M 100.382812 39.257812 C 101.609375 37.296875 102.980469 35.507812 99.835938 33.421875 C 99.773438 35.210938 100.777344 36.816406 100.382812 39.257812 "/>
<path style=" stroke:none;fill-rule:evenodd;fill:rgb(100%,100%,100%);fill-opacity:1;" d="M 71.359375 61.015625 C 71.121094 61.105469 70.011719 61.097656 69.285156 60.890625 C 70.015625 60.8125 70.835938 60.421875 71.359375 61.015625 "/>
<path style=" stroke:none;fill-rule:nonzero;fill:rgb(100%,100%,100%);fill-opacity:1;" d="M 68.90625 70.679688 C 68.90625 69.257812 70.0625 68.101562 71.488281 68.101562 C 72.914062 68.101562 74.066406 69.257812 74.066406 70.679688 C 74.066406 72.105469 72.914062 73.257812 71.488281 73.257812 C 70.0625 73.257812 68.90625 72.105469 68.90625 70.679688 "/>
<path style=" stroke:none;fill-rule:nonzero;fill:rgb(36.862745%,9.019608%,92.156863%);fill-opacity:1;" d="M 69.554688 70.714844 C 69.554688 69.625 70.386719 68.726562 71.449219 68.617188 C 70.832031 68.984375 70.421875 69.660156 70.421875 70.429688 C 70.421875 71.59375 71.367188 72.535156 72.535156 72.535156 C 72.605469 72.535156 72.679688 72.53125 72.753906 72.527344 C 72.433594 72.714844 72.066406 72.824219 71.667969 72.824219 C 70.5 72.824219 69.554688 71.882812 69.554688 70.714844 "/>
<path style=" stroke:none;fill-rule:evenodd;fill:rgb(100%,100%,100%);fill-opacity:1;" d="M 46.132812 79.929688 L 62.515625 85.609375 L 69.339844 82.378906 L 78.144531 84.109375 C 79.386719 85.308594 79.289062 86.460938 77.859375 87.574219 L 73.8125 86.851562 C 73.238281 86.898438 73.238281 87.28125 73.8125 88.003906 L 77.28125 89.230469 C 78.066406 90.378906 77.96875 91.363281 76.992188 92.1875 L 72.5 91.59375 C 72.0625 91.796875 72.027344 92.078125 72.390625 92.449219 L 76.601562 93.164062 C 76.964844 94.167969 76.535156 95.539062 75.882812 96.265625 L 72.222656 95.992188 C 71.644531 96.179688 71.566406 96.484375 71.980469 96.898438 L 75.613281 97.113281 C 76.242188 98.40625 75.566406 99.472656 74.582031 100.371094 L 67.171875 99.613281 L 59.375 94.640625 L 45.113281 90.753906 L 46.132812 79.929688 "/>
<path style=" stroke:none;fill-rule:evenodd;fill:rgb(36.862745%,9.019608%,92.156863%);fill-opacity:1;" d="M 69.410156 83.03125 C 68.003906 84.179688 67.980469 85.238281 69.339844 86.199219 C 69.03125 85.195312 69.054688 84.140625 69.410156 83.03125 "/>
<path style=" stroke:none;fill-rule:evenodd;fill:rgb(36.862745%,9.019608%,92.156863%);fill-opacity:1;" d="M 69.265625 87.933594 C 67.859375 89.082031 67.835938 90.140625 69.195312 91.105469 C 68.886719 90.101562 68.910156 89.042969 69.265625 87.933594 "/>
<path style=" stroke:none;fill-rule:evenodd;fill:rgb(36.862745%,9.019608%,92.156863%);fill-opacity:1;" d="M 69.554688 92.765625 C 68.148438 93.914062 68.125 94.972656 69.484375 95.9375 C 69.175781 94.933594 69.199219 93.875 69.554688 92.765625 "/>
<path style=" stroke:none;fill-rule:evenodd;fill:rgb(36.862745%,9.019608%,92.156863%);fill-opacity:1;" d="M 69.265625 96.152344 C 67.859375 97.304688 67.835938 98.359375 69.195312 99.328125 C 68.886719 98.320312 68.910156 97.261719 69.265625 96.152344 "/>
<path style=" stroke:none;fill-rule:evenodd;fill:rgb(36.862745%,9.019608%,92.156863%);fill-opacity:1;" d="M 46.308594 87.355469 C 42.453125 86.3125 41.039062 84.46875 36.921875 85.410156 C 43.132812 86.707031 54.65625 91.273438 56.972656 91.289062 C 52.953125 89.425781 53.238281 89.230469 46.308594 87.355469 "/>
<path style=" stroke:none;fill-rule:evenodd;fill:rgb(36.862745%,9.019608%,92.156863%);fill-opacity:1;" d="M 60.722656 94.199219 C 62.066406 95.503906 63.105469 95.96875 66.523438 97.882812 C 65.390625 96.007812 63.5625 93.988281 61.035156 91.824219 L 60.722656 94.199219 "/>
<path style=" stroke:none;fill-rule:evenodd;fill:rgb(36.862745%,9.019608%,92.156863%);fill-opacity:1;" d="M 89.335938 61.972656 C 88.3125 65.679688 83.53125 69.769531 77.171875 72.5 C 81.042969 71.882812 88.6875 67.308594 91.121094 62.410156 L 89.335938 61.972656 "/>
<path style=" stroke:none;fill-rule:evenodd;fill:rgb(100%,100%,100%);fill-opacity:1;" d="M 80.832031 86.96875 C 84.296875 83.480469 86.28125 84.753906 88.6875 78.628906 L 88.542969 74.304688 C 86.519531 78.917969 82.191406 79.636719 80.832031 86.96875 "/>
<path style=" stroke:none;fill-rule:evenodd;fill:rgb(100%,100%,100%);fill-opacity:1;" d="M 78.867188 74.015625 C 73.679688 78.933594 68.289062 78.695312 62.695312 73.292969 C 69.046875 76.234375 74.4375 76.476562 78.867188 74.015625 "/>
<g clip-path="url(#clip4)" clip-rule="nonzero">
<path style=" stroke:none;fill-rule:nonzero;fill:rgb(36.862745%,9.019608%,92.156863%);fill-opacity:1;" d="M 6.417969 69.75 C 3.691406 69.75 1.476562 71.964844 1.476562 74.695312 C 1.476562 77.425781 3.691406 79.636719 6.417969 79.636719 C 9.148438 79.636719 11.363281 77.425781 11.363281 74.695312 C 11.363281 71.964844 9.148438 69.75 6.417969 69.75 "/>
</g>
<g clip-path="url(#clip5)" clip-rule="nonzero">
<path style=" stroke:none;fill-rule:nonzero;fill:rgb(36.862745%,9.019608%,92.156863%);fill-opacity:1;" d="M 143.496094 69.75 C 140.769531 69.75 138.554688 71.964844 138.554688 74.695312 C 138.554688 77.425781 140.769531 79.636719 143.496094 79.636719 C 146.226562 79.636719 148.441406 77.425781 148.441406 74.695312 C 148.441406 71.964844 146.226562 69.75 143.496094 69.75 "/>
</g>
</g>
</svg>
