<?xml version="1.0" encoding="UTF-8"?>
<svg xmlns="http://www.w3.org/2000/svg" xmlns:xlink="http://www.w3.org/1999/xlink" width="75px" height="75px" viewBox="0 0 75 75" version="1.1">
<defs>
<clipPath id="clip1">
  <path d="M 0.132812 0 L 74.859375 0 L 74.859375 74.867188 L 0.132812 74.867188 Z M 0.132812 0 "/>
</clipPath>
<clipPath id="clip2">
  <path d="M 0.132812 0 L 74.859375 0 L 74.859375 74.734375 L 0.132812 74.734375 Z M 0.132812 0 "/>
</clipPath>
<clipPath id="clip3">
  <path d="M 13.59375 12.195312 L 62.449219 12.195312 L 62.449219 55.273438 L 13.59375 55.273438 Z M 13.59375 12.195312 "/>
</clipPath>
<clipPath id="clip4">
  <path d="M 0.738281 34.875 L 5.679688 34.875 L 5.679688 39.820312 L 0.738281 39.820312 Z M 0.738281 34.875 "/>
</clipPath>
<clipPath id="clip5">
  <path d="M 69.277344 34.875 L 74.21875 34.875 L 74.21875 39.820312 L 69.277344 39.820312 Z M 69.277344 34.875 "/>
</clipPath>
</defs>
<g id="surface1">
<g clip-path="url(#clip1)" clip-rule="nonzero">
<path style=" stroke:none;fill-rule:nonzero;fill:rgb(100%,100%,100%);fill-opacity:1;" d="M 0.132812 0 L 74.867188 0 L 74.867188 76.710938 L 0.132812 76.710938 Z M 0.132812 0 "/>
<path style=" stroke:none;fill-rule:nonzero;fill:rgb(100%,100%,100%);fill-opacity:1;" d="M 0.132812 0 L 74.867188 0 L 74.867188 74.734375 L 0.132812 74.734375 Z M 0.132812 0 "/>
</g>
<g clip-path="url(#clip2)" clip-rule="nonzero">
<path style=" stroke:none;fill-rule:nonzero;fill:rgb(100%,100%,100%);fill-opacity:1;" d="M 0.132812 0 L 74.867188 0 L 74.867188 74.734375 L 0.132812 74.734375 Z M 0.132812 0 "/>
<path style=" stroke:none;fill-rule:nonzero;fill:rgb(100%,100%,100%);fill-opacity:1;" d="M 0.132812 0 L 74.867188 0 L 74.867188 74.734375 L 0.132812 74.734375 Z M 0.132812 0 "/>
</g>
<path style=" stroke:none;fill-rule:nonzero;fill:rgb(36.862745%,9.019608%,92.156863%);fill-opacity:1;" d="M 6.902344 31.292969 L 7.664062 28.578125 C 8.054688 27.203125 7.773438 26.511719 6.765625 26.226562 C 6.070312 26.03125 5.570312 26.351562 5.28125 26.828125 C 5.21875 26.234375 4.976562 25.984375 4.375 25.816406 C 3.59375 25.59375 2.992188 26.035156 2.65625 27.222656 L 1.90625 29.886719 L 2.828125 30.148438 L 2.945312 29.734375 L 6.089844 30.617188 L 5.972656 31.03125 Z M 3.382812 28.257812 L 3.511719 27.808594 C 3.585938 27.539062 3.835938 27.390625 4.164062 27.484375 C 4.507812 27.578125 4.6875 27.746094 4.578125 28.125 L 4.453125 28.5625 Z M 6.507812 29.140625 L 5.265625 28.789062 L 5.417969 28.238281 C 5.53125 27.84375 5.851562 27.710938 6.21875 27.8125 C 6.601562 27.921875 6.75 28.265625 6.667969 28.570312 Z M 6.507812 29.140625 "/>
<path style=" stroke:none;fill-rule:nonzero;fill:rgb(36.862745%,9.019608%,92.156863%);fill-opacity:1;" d="M 11.125 20.671875 L 10.261719 20.226562 L 10.023438 20.691406 L 5.671875 19.945312 L 4.375 22.480469 L 5.226562 22.914062 L 5.367188 22.644531 L 7.8125 25.023438 L 7.582031 25.46875 L 8.445312 25.914062 L 9.523438 23.8125 L 8.65625 23.367188 L 8.390625 23.882812 L 8.015625 23.515625 L 8.707031 22.160156 L 9.226562 22.25 L 8.90625 22.878906 L 9.773438 23.320312 Z M 7.34375 22.867188 L 6.136719 21.707031 L 7.789062 22 Z M 7.34375 22.867188 "/>
<path style=" stroke:none;fill-rule:nonzero;fill:rgb(36.862745%,9.019608%,92.156863%);fill-opacity:1;" d="M 10.632812 12.90625 L 7.53125 16.800781 L 9.042969 18 L 9.722656 17.148438 L 8.976562 16.554688 L 9.375 16.058594 L 11.898438 18.0625 L 11.515625 18.539062 L 12.289062 19.15625 L 14.007812 16.992188 L 13.234375 16.378906 L 12.851562 16.859375 L 10.332031 14.855469 L 10.71875 14.367188 L 11.460938 14.960938 L 12.140625 14.105469 Z M 10.632812 12.90625 "/>
<path style=" stroke:none;fill-rule:nonzero;fill:rgb(36.862745%,9.019608%,92.156863%);fill-opacity:1;" d="M 11.867188 11.605469 L 12.492188 12.335938 L 12.8125 12.066406 L 14.003906 13.460938 C 15.101562 14.738281 16.21875 14.8125 17.390625 13.871094 C 18.445312 12.960938 18.488281 11.882812 17.34375 10.546875 L 16.167969 9.175781 L 16.46875 8.914062 L 15.847656 8.1875 L 14.179688 9.617188 L 14.820312 10.363281 L 15.125 10.101562 L 16.148438 11.296875 C 16.976562 12.265625 16.871094 12.59375 16.523438 12.890625 C 16.164062 13.195312 15.796875 13.179688 15.023438 12.273438 L 13.976562 11.054688 L 14.28125 10.796875 L 13.65625 10.070312 Z M 11.867188 11.605469 "/>
<path style=" stroke:none;fill-rule:nonzero;fill:rgb(36.862745%,9.019608%,92.156863%);fill-opacity:1;" d="M 22.625 5.726562 L 22.828125 6.113281 L 23.984375 8.304688 L 23.617188 8.5 L 24.070312 9.351562 L 26.140625 8.257812 L 25.695312 7.40625 L 25.332031 7.597656 L 23.808594 4.707031 L 24.171875 4.515625 L 23.726562 3.671875 L 21.222656 4.988281 L 21.886719 7.777344 L 19.929688 5.671875 L 17.441406 6.980469 L 17.886719 7.828125 L 18.234375 7.648438 L 19.757812 10.539062 L 19.40625 10.726562 L 19.851562 11.574219 L 21.632812 10.636719 L 21.1875 9.789062 L 20.8125 9.984375 L 19.449219 7.398438 L 19.476562 7.386719 C 19.664062 7.703125 19.949219 8.03125 20.039062 8.128906 L 22.15625 10.359375 L 23.53125 9.636719 L 22.875 6.71875 C 22.839844 6.542969 22.703125 6.0625 22.601562 5.738281 Z M 22.625 5.726562 "/>
<path style=" stroke:none;fill-rule:nonzero;fill:rgb(36.862745%,9.019608%,92.156863%);fill-opacity:1;" d="M 25.578125 3.132812 L 25.867188 4.070312 L 26.316406 3.929688 L 27.269531 7.007812 L 26.820312 7.144531 L 27.117188 8.085938 L 29.46875 7.359375 L 29.175781 6.414062 L 28.734375 6.554688 L 27.78125 3.476562 L 28.222656 3.339844 L 27.929688 2.402344 Z M 25.578125 3.132812 "/>
<path style=" stroke:none;fill-rule:nonzero;fill:rgb(36.862745%,9.019608%,92.156863%);fill-opacity:1;" d="M 35.097656 4.710938 C 35.0625 4.484375 34.90625 3.609375 34.8125 3.257812 L 34.585938 2.179688 L 35.019531 2.164062 L 34.988281 1.199219 L 32.539062 1.273438 L 32.570312 2.242188 L 32.984375 2.226562 L 34.097656 6.417969 L 35.820312 6.367188 L 36.214844 4.570312 C 36.257812 4.351562 36.34375 3.882812 36.363281 3.660156 L 36.394531 3.65625 C 36.4375 3.886719 36.53125 4.320312 36.609375 4.570312 L 37.109375 6.324219 L 38.867188 6.269531 L 39.839844 2.015625 L 40.25 2 L 40.21875 1.039062 L 38.09375 1.101562 L 38.125 2.066406 L 38.535156 2.054688 L 38.316406 3.1875 C 38.257812 3.503906 38.15625 4.28125 38.140625 4.613281 L 38.101562 4.617188 C 38.054688 4.246094 37.953125 3.640625 37.835938 3.160156 L 37.304688 1.125 L 35.757812 1.175781 L 35.441406 2.855469 C 35.3125 3.566406 35.140625 4.5 35.132812 4.710938 Z M 35.097656 4.710938 "/>
<path style=" stroke:none;fill-rule:nonzero;fill:rgb(36.862745%,9.019608%,92.156863%);fill-opacity:1;" d="M 46.6875 7.5625 L 46.882812 6.609375 L 46.375 6.507812 L 45.9375 2.109375 L 43.148438 1.539062 L 42.953125 2.472656 L 43.25 2.535156 L 41.613281 5.523438 L 41.117188 5.421875 L 40.921875 6.375 L 43.234375 6.851562 L 43.429688 5.898438 L 42.863281 5.78125 L 43.117188 5.320312 L 44.609375 5.625 L 44.65625 6.152344 L 43.96875 6.007812 L 43.773438 6.960938 Z M 43.566406 4.5 L 44.363281 3.03125 L 44.519531 4.699219 Z M 43.566406 4.5 "/>
<path style=" stroke:none;fill-rule:nonzero;fill:rgb(36.862745%,9.019608%,92.156863%);fill-opacity:1;" d="M 49.546875 3.09375 L 49.164062 3.984375 L 49.546875 4.152344 L 48.265625 7.125 L 47.882812 6.960938 L 47.492188 7.859375 L 49.695312 8.808594 L 50.085938 7.90625 L 49.667969 7.726562 L 50.125 6.671875 C 50.730469 6.933594 50.742188 7.117188 50.472656 7.734375 C 50.128906 8.535156 50.355469 9.1875 51.25 9.574219 C 52.007812 9.898438 52.46875 9.476562 52.714844 8.914062 L 52.875 8.539062 L 52.417969 8.34375 L 52.320312 8.5625 C 52.265625 8.703125 52.171875 8.757812 52.070312 8.71875 C 51.945312 8.664062 51.980469 8.476562 52.109375 8.179688 C 52.320312 7.691406 52.070312 7.101562 51.632812 6.828125 C 52.234375 6.992188 52.816406 6.796875 53.046875 6.265625 C 53.382812 5.492188 53.34375 4.730469 51.761719 4.046875 Z M 50.953125 4.75 L 51.289062 4.898438 C 51.6875 5.066406 51.824219 5.367188 51.648438 5.773438 C 51.496094 6.132812 51.15625 6.210938 50.757812 6.039062 L 50.453125 5.910156 Z M 50.953125 4.75 "/>
<path style=" stroke:none;fill-rule:nonzero;fill:rgb(36.862745%,9.019608%,92.156863%);fill-opacity:1;" d="M 55.9375 6.054688 L 55.390625 6.859375 L 55.734375 7.09375 L 53.90625 9.761719 L 53.5625 9.527344 L 53.007812 10.335938 L 54.984375 11.691406 L 55.539062 10.882812 L 55.164062 10.625 L 55.816406 9.675781 C 56.359375 10.050781 56.335938 10.230469 55.953125 10.789062 C 55.460938 11.503906 55.5625 12.191406 56.359375 12.742188 C 57.042969 13.207031 57.578125 12.882812 57.929688 12.375 L 58.15625 12.039062 L 57.75 11.757812 L 57.609375 11.960938 C 57.523438 12.078125 57.425781 12.121094 57.335938 12.054688 C 57.226562 11.984375 57.292969 11.804688 57.472656 11.539062 C 57.773438 11.101562 57.648438 10.472656 57.265625 10.121094 C 57.824219 10.398438 58.4375 10.320312 58.761719 9.84375 C 59.242188 9.140625 59.351562 8.390625 57.929688 7.417969 Z M 57 7.949219 L 57.304688 8.160156 C 57.660156 8.402344 57.734375 8.726562 57.488281 9.085938 C 57.265625 9.410156 56.914062 9.421875 56.5625 9.179688 L 56.285156 8.992188 Z M 57 7.949219 "/>
<path style=" stroke:none;fill-rule:nonzero;fill:rgb(36.862745%,9.019608%,92.156863%);fill-opacity:1;" d="M 61.496094 10.152344 L 60.824219 10.867188 L 61.164062 11.1875 L 58.960938 13.53125 L 58.617188 13.210938 L 57.945312 13.929688 L 59.738281 15.617188 L 60.414062 14.898438 L 60.078125 14.585938 L 62.285156 12.238281 L 62.617188 12.554688 L 63.289062 11.839844 Z M 61.496094 10.152344 "/>
<path style=" stroke:none;fill-rule:nonzero;fill:rgb(36.862745%,9.019608%,92.156863%);fill-opacity:1;" d="M 61.980469 18.421875 C 63.011719 19.742188 64.394531 19.851562 65.71875 18.820312 C 67.035156 17.792969 67.375 16.457031 66.257812 15.023438 C 65.3125 13.808594 63.78125 13.648438 62.519531 14.632812 C 61.054688 15.773438 61.027344 17.195312 61.980469 18.421875 Z M 62.898438 17.703125 C 62.609375 17.328125 62.878906 16.675781 63.644531 16.078125 C 64.371094 15.511719 65.078125 15.359375 65.351562 15.71875 C 65.703125 16.167969 65.285156 16.804688 64.578125 17.359375 C 63.851562 17.921875 63.1875 18.074219 62.898438 17.703125 Z M 62.898438 17.703125 "/>
<path style=" stroke:none;fill-rule:nonzero;fill:rgb(36.862745%,9.019608%,92.156863%);fill-opacity:1;" d="M 68.78125 18.800781 L 67.914062 19.242188 L 68.101562 19.609375 L 65.21875 21.070312 L 65.027344 20.703125 L 64.15625 21.140625 L 65.234375 23.28125 L 66.109375 22.839844 L 65.90625 22.4375 L 66.929688 21.914062 C 67.230469 22.507812 67.121094 22.652344 66.515625 22.957031 C 65.742188 23.351562 65.496094 23.996094 65.9375 24.867188 C 66.304688 25.601562 66.933594 25.574219 67.484375 25.296875 L 67.851562 25.109375 L 67.625 24.667969 L 67.40625 24.78125 C 67.273438 24.84375 67.164062 24.832031 67.117188 24.734375 C 67.054688 24.617188 67.203125 24.492188 67.484375 24.347656 C 67.960938 24.105469 68.15625 23.492188 67.988281 23.003906 C 68.34375 23.515625 68.917969 23.742188 69.4375 23.476562 C 70.1875 23.097656 70.648438 22.492188 69.875 20.953125 Z M 68.796875 20.972656 L 68.96875 21.304688 C 69.164062 21.6875 69.074219 22.007812 68.683594 22.203125 C 68.332031 22.382812 68.015625 22.222656 67.824219 21.839844 L 67.671875 21.539062 Z M 68.796875 20.972656 "/>
<path style=" stroke:none;fill-rule:nonzero;fill:rgb(36.862745%,9.019608%,92.156863%);fill-opacity:1;" d="M 66.792969 26.585938 L 67.148438 27.835938 L 67.71875 27.757812 C 67.476562 28.117188 67.28125 28.710938 67.488281 29.4375 C 67.726562 30.285156 68.425781 31.210938 69.539062 30.898438 C 71.21875 30.417969 70.242188 27.640625 70.976562 27.429688 C 71.226562 27.359375 71.4375 27.609375 71.492188 27.816406 C 71.640625 28.316406 71.453125 28.8125 70.925781 28.964844 L 71.296875 30.257812 L 73.085938 29.746094 L 72.734375 28.519531 L 72.117188 28.617188 C 72.570312 28.179688 72.59375 27.519531 72.421875 26.921875 C 72.21875 26.21875 71.460938 25.355469 70.402344 25.65625 C 68.582031 26.175781 69.597656 28.851562 69.039062 29.007812 C 68.742188 29.09375 68.582031 28.75 68.511719 28.5 C 68.4375 28.199219 68.367188 27.570312 68.96875 27.398438 L 68.59375 26.070312 Z M 66.792969 26.585938 "/>
<path style=" stroke:none;fill-rule:nonzero;fill:rgb(36.862745%,9.019608%,92.156863%);fill-opacity:1;" d="M 2.71875 46.085938 L 6.519531 44.757812 L 6.914062 45.882812 L 3.109375 47.210938 Z M 2.71875 46.085938 "/>
<path style=" stroke:none;fill-rule:nonzero;fill:rgb(36.862745%,9.019608%,92.156863%);fill-opacity:1;" d="M 7.289062 50.382812 C 7.382812 50.195312 7.4375 50 7.453125 49.800781 C 7.464844 49.601562 7.4375 49.429688 7.367188 49.28125 C 7.289062 49.117188 7.175781 48.992188 7.03125 48.898438 C 6.886719 48.808594 6.722656 48.757812 6.539062 48.75 C 6.351562 48.742188 6.167969 48.785156 5.984375 48.871094 C 5.804688 48.960938 5.65625 49.074219 5.546875 49.222656 C 5.4375 49.367188 5.375 49.523438 5.347656 49.695312 C 5.324219 49.871094 5.351562 50.039062 5.429688 50.203125 C 5.496094 50.339844 5.601562 50.46875 5.75 50.589844 C 5.90625 50.710938 6.078125 50.804688 6.265625 50.867188 L 5.90625 51.804688 C 5.59375 51.707031 5.304688 51.546875 5.046875 51.328125 C 4.789062 51.117188 4.59375 50.871094 4.460938 50.597656 C 4.289062 50.234375 4.21875 49.867188 4.242188 49.492188 C 4.269531 49.125 4.382812 48.789062 4.59375 48.484375 C 4.804688 48.175781 5.089844 47.9375 5.453125 47.765625 C 5.804688 47.601562 6.164062 47.539062 6.53125 47.570312 C 6.898438 47.605469 7.234375 47.734375 7.539062 47.953125 C 7.84375 48.171875 8.078125 48.46875 8.253906 48.835938 C 8.382812 49.109375 8.453125 49.410156 8.46875 49.738281 C 8.484375 50.070312 8.4375 50.375 8.328125 50.652344 Z M 7.289062 50.382812 "/>
<path style=" stroke:none;fill-rule:nonzero;fill:rgb(36.862745%,9.019608%,92.156863%);fill-opacity:1;" d="M 6.015625 53.390625 L 9.382812 51.179688 L 11.1875 53.929688 L 10.417969 54.429688 L 9.269531 52.679688 L 8.742188 53.023438 L 9.785156 54.617188 L 9.015625 55.121094 L 7.976562 53.53125 L 7.441406 53.882812 L 8.625 55.683594 L 7.855469 56.1875 Z M 6.015625 53.390625 "/>
<path style=" stroke:none;fill-rule:nonzero;fill:rgb(36.862745%,9.019608%,92.156863%);fill-opacity:1;" d="M 10.546875 59.484375 L 13.367188 56.609375 L 14.21875 57.449219 L 13.097656 58.59375 L 14.117188 59.59375 L 15.238281 58.449219 L 16.089844 59.285156 L 13.273438 62.164062 L 12.421875 61.328125 L 13.46875 60.257812 L 12.449219 59.257812 L 11.398438 60.328125 Z M 10.546875 59.484375 "/>
<path style=" stroke:none;fill-rule:nonzero;fill:rgb(36.862745%,9.019608%,92.156863%);fill-opacity:1;" d="M 18.660156 61.152344 C 19 61.398438 19.25 61.6875 19.421875 62.03125 C 19.585938 62.367188 19.65625 62.722656 19.625 63.09375 C 19.59375 63.457031 19.460938 63.800781 19.234375 64.121094 C 19.007812 64.445312 18.722656 64.679688 18.382812 64.828125 C 18.046875 64.976562 17.683594 65.03125 17.304688 64.984375 C 16.925781 64.9375 16.570312 64.792969 16.230469 64.550781 C 15.890625 64.308594 15.640625 64.015625 15.472656 63.671875 C 15.308594 63.332031 15.242188 62.976562 15.273438 62.609375 C 15.304688 62.234375 15.433594 61.890625 15.664062 61.566406 C 15.890625 61.25 16.175781 61.015625 16.515625 60.867188 C 16.851562 60.71875 17.210938 60.671875 17.585938 60.71875 C 17.960938 60.765625 18.320312 60.914062 18.660156 61.152344 Z M 18.097656 61.972656 C 17.953125 61.871094 17.792969 61.8125 17.617188 61.804688 C 17.4375 61.796875 17.265625 61.832031 17.09375 61.914062 C 16.921875 61.992188 16.777344 62.117188 16.660156 62.28125 C 16.539062 62.445312 16.46875 62.625 16.445312 62.8125 C 16.421875 63.007812 16.445312 63.183594 16.507812 63.351562 C 16.570312 63.519531 16.679688 63.65625 16.820312 63.757812 C 16.960938 63.859375 17.117188 63.90625 17.296875 63.914062 C 17.476562 63.921875 17.644531 63.878906 17.808594 63.789062 C 17.976562 63.703125 18.117188 63.578125 18.238281 63.410156 C 18.355469 63.242188 18.429688 63.070312 18.457031 62.890625 C 18.488281 62.703125 18.46875 62.53125 18.40625 62.367188 C 18.339844 62.203125 18.238281 62.070312 18.097656 61.972656 Z M 18.097656 61.972656 "/>
<path style=" stroke:none;fill-rule:nonzero;fill:rgb(36.862745%,9.019608%,92.156863%);fill-opacity:1;" d="M 23.210938 65.605469 C 23.171875 65.398438 23.09375 65.210938 22.984375 65.046875 C 22.875 64.882812 22.75 64.757812 22.601562 64.683594 C 22.4375 64.601562 22.273438 64.570312 22.101562 64.585938 C 21.929688 64.601562 21.769531 64.660156 21.617188 64.765625 C 21.46875 64.875 21.351562 65.015625 21.257812 65.195312 C 21.164062 65.375 21.117188 65.558594 21.125 65.742188 C 21.125 65.921875 21.167969 66.09375 21.253906 66.242188 C 21.339844 66.390625 21.460938 66.507812 21.625 66.589844 C 21.757812 66.65625 21.925781 66.695312 22.117188 66.695312 C 22.3125 66.703125 22.5 66.671875 22.695312 66.609375 L 22.96875 67.578125 C 22.664062 67.6875 22.34375 67.734375 22.007812 67.722656 C 21.667969 67.710938 21.363281 67.632812 21.097656 67.496094 C 20.738281 67.3125 20.457031 67.0625 20.25 66.75 C 20.042969 66.441406 19.929688 66.101562 19.914062 65.734375 C 19.898438 65.367188 19.980469 65 20.164062 64.648438 C 20.335938 64.300781 20.582031 64.03125 20.894531 63.832031 C 21.210938 63.636719 21.554688 63.535156 21.929688 63.527344 C 22.304688 63.515625 22.671875 63.601562 23.035156 63.789062 C 23.304688 63.929688 23.539062 64.125 23.75 64.378906 C 23.960938 64.632812 24.109375 64.902344 24.195312 65.1875 Z M 23.210938 65.605469 "/>
<path style=" stroke:none;fill-rule:nonzero;fill:rgb(36.862745%,9.019608%,92.156863%);fill-opacity:1;" d="M 27.140625 67.304688 L 27.835938 70.078125 L 26.484375 69.617188 L 26.070312 67.90625 L 25.484375 68.230469 L 25.164062 69.164062 L 24.035156 68.78125 L 25.335938 64.96875 L 26.46875 65.351562 L 25.945312 66.878906 L 27.742188 65.789062 L 29.050781 66.234375 Z M 27.140625 67.304688 "/>
<path style=" stroke:none;fill-rule:nonzero;fill:rgb(36.862745%,9.019608%,92.156863%);fill-opacity:1;" d="M 29.289062 70.421875 L 30.03125 66.460938 L 33.265625 67.070312 L 33.09375 67.972656 L 31.039062 67.585938 L 30.921875 68.207031 L 32.789062 68.558594 L 32.621094 69.464844 L 30.75 69.113281 L 30.632812 69.742188 L 32.75 70.140625 L 32.578125 71.039062 Z M 29.289062 70.421875 "/>
<path style=" stroke:none;fill-rule:nonzero;fill:rgb(36.862745%,9.019608%,92.156863%);fill-opacity:1;" d="M 37 67.332031 L 38.191406 67.390625 L 36.613281 70.0625 L 36.550781 71.34375 L 35.359375 71.28125 L 35.417969 70.03125 L 34.078125 67.191406 L 35.269531 67.25 L 36.070312 68.929688 Z M 37 67.332031 "/>
<path style=" stroke:none;fill-rule:nonzero;fill:rgb(36.862745%,9.019608%,92.156863%);fill-opacity:1;" d="M 41.171875 68.148438 L 41.023438 67.210938 L 44.527344 66.660156 L 44.675781 67.597656 L 43.515625 67.78125 L 43.992188 70.820312 L 42.804688 71.003906 L 42.328125 67.964844 Z M 41.171875 68.148438 "/>
<path style=" stroke:none;fill-rule:nonzero;fill:rgb(36.862745%,9.019608%,92.156863%);fill-opacity:1;" d="M 46.597656 70.300781 L 45.453125 66.4375 L 48.609375 65.507812 L 48.867188 66.386719 L 46.859375 66.984375 L 47.039062 67.589844 L 48.863281 67.046875 L 49.125 67.929688 L 47.300781 68.46875 L 47.484375 69.082031 L 49.546875 68.46875 L 49.804688 69.351562 Z M 46.597656 70.300781 "/>
<path style=" stroke:none;fill-rule:nonzero;fill:rgb(36.862745%,9.019608%,92.156863%);fill-opacity:1;" d="M 55.25 66.984375 L 54.09375 67.519531 L 53.609375 67.03125 L 52.132812 67.710938 L 52.1875 68.402344 L 51.070312 68.921875 L 50.9375 64.542969 L 52.054688 64.023438 Z M 51.96875 65.382812 L 52.070312 66.789062 L 52.957031 66.375 Z M 51.96875 65.382812 "/>
<path style=" stroke:none;fill-rule:nonzero;fill:rgb(36.862745%,9.019608%,92.156863%);fill-opacity:1;" d="M 56.539062 66.257812 L 54.265625 62.9375 L 55.320312 62.210938 L 57.472656 63.445312 L 57.101562 61 L 58.15625 60.273438 L 60.429688 63.597656 L 59.5625 64.1875 L 58.21875 62.21875 L 58.578125 64.382812 L 57.9375 64.820312 L 56.054688 63.695312 L 57.402344 65.664062 Z M 56.539062 66.257812 "/>
<path style=" stroke:none;fill-rule:nonzero;fill:rgb(36.862745%,9.019608%,92.156863%);fill-opacity:1;" d="M 63.949219 59.011719 L 65.039062 57.84375 L 65.71875 58.476562 L 63.597656 60.75 L 63.039062 60.238281 L 62.933594 58.175781 C 62.921875 58.03125 62.90625 57.898438 62.871094 57.78125 C 62.835938 57.664062 62.796875 57.578125 62.738281 57.523438 C 62.671875 57.460938 62.597656 57.4375 62.519531 57.453125 C 62.4375 57.46875 62.359375 57.515625 62.28125 57.597656 C 62.175781 57.710938 62.089844 57.875 62.023438 58.078125 C 61.957031 58.28125 61.914062 58.507812 61.898438 58.757812 L 60.964844 58.5 C 61.070312 57.78125 61.320312 57.214844 61.703125 56.804688 C 61.890625 56.601562 62.085938 56.453125 62.300781 56.359375 C 62.515625 56.261719 62.71875 56.222656 62.921875 56.242188 C 63.125 56.261719 63.304688 56.34375 63.457031 56.492188 C 63.609375 56.632812 63.722656 56.828125 63.792969 57.078125 C 63.859375 57.324219 63.902344 57.628906 63.914062 57.984375 Z M 63.949219 59.011719 "/>
<path style=" stroke:none;fill-rule:nonzero;fill:rgb(36.862745%,9.019608%,92.156863%);fill-opacity:1;" d="M 64.421875 53.480469 C 64.761719 53.003906 65.164062 52.738281 65.640625 52.6875 C 66.109375 52.632812 66.609375 52.800781 67.148438 53.179688 C 67.683594 53.5625 68.007812 53.984375 68.113281 54.445312 C 68.226562 54.910156 68.109375 55.382812 67.773438 55.859375 C 67.429688 56.339844 67.023438 56.605469 66.554688 56.65625 C 66.085938 56.703125 65.582031 56.53125 65.039062 56.148438 C 64.5 55.765625 64.179688 55.347656 64.070312 54.890625 C 63.964844 54.433594 64.082031 53.960938 64.421875 53.480469 Z M 65.132812 53.984375 C 65.007812 54.160156 64.996094 54.335938 65.085938 54.515625 C 65.179688 54.6875 65.398438 54.90625 65.75 55.15625 C 66.101562 55.402344 66.375 55.539062 66.570312 55.570312 C 66.773438 55.601562 66.929688 55.523438 67.054688 55.347656 C 67.179688 55.175781 67.195312 55 67.097656 54.824219 C 67.003906 54.648438 66.78125 54.4375 66.429688 54.1875 C 66.082031 53.9375 65.8125 53.796875 65.613281 53.769531 C 65.417969 53.742188 65.257812 53.8125 65.132812 53.984375 Z M 65.132812 53.984375 "/>
<path style=" stroke:none;fill-rule:nonzero;fill:rgb(36.862745%,9.019608%,92.156863%);fill-opacity:1;" d="M 69.457031 51.265625 L 70.195312 49.855469 L 71.019531 50.289062 L 69.570312 53.042969 L 68.890625 52.695312 L 68.253906 50.734375 C 68.207031 50.59375 68.152344 50.46875 68.09375 50.363281 C 68.03125 50.257812 67.960938 50.1875 67.894531 50.152344 C 67.8125 50.109375 67.734375 50.105469 67.664062 50.140625 C 67.59375 50.171875 67.53125 50.242188 67.476562 50.339844 C 67.402344 50.480469 67.359375 50.65625 67.347656 50.875 C 67.335938 51.085938 67.359375 51.320312 67.410156 51.566406 L 66.4375 51.558594 C 66.351562 50.835938 66.441406 50.226562 66.703125 49.734375 C 66.835938 49.492188 66.988281 49.292969 67.164062 49.144531 C 67.34375 48.992188 67.539062 48.898438 67.734375 48.867188 C 67.9375 48.832031 68.132812 48.863281 68.320312 48.960938 C 68.503906 49.0625 68.664062 49.21875 68.796875 49.441406 C 68.929688 49.664062 69.046875 49.949219 69.148438 50.292969 Z M 69.457031 51.265625 "/>
<path style=" stroke:none;fill-rule:nonzero;fill:rgb(36.862745%,9.019608%,92.156863%);fill-opacity:1;" d="M 71.300781 47.164062 L 71.859375 45.667969 L 72.730469 45.992188 L 71.640625 48.90625 L 70.921875 48.648438 L 70.039062 46.78125 C 69.976562 46.648438 69.90625 46.539062 69.832031 46.441406 C 69.757812 46.34375 69.679688 46.28125 69.609375 46.257812 C 69.523438 46.222656 69.445312 46.226562 69.378906 46.273438 C 69.3125 46.3125 69.257812 46.386719 69.21875 46.492188 C 69.164062 46.640625 69.148438 46.820312 69.164062 47.039062 C 69.179688 47.25 69.226562 47.476562 69.304688 47.714844 L 68.339844 47.828125 C 68.171875 47.125 68.179688 46.507812 68.375 45.984375 C 68.476562 45.726562 68.601562 45.515625 68.761719 45.34375 C 68.921875 45.171875 69.101562 45.054688 69.296875 45 C 69.488281 44.9375 69.683594 44.945312 69.882812 45.019531 C 70.078125 45.09375 70.257812 45.234375 70.414062 45.4375 C 70.570312 45.640625 70.726562 45.90625 70.878906 46.230469 Z M 71.300781 47.164062 "/>
<g clip-path="url(#clip3)" clip-rule="nonzero">
<path style=" stroke:none;fill-rule:nonzero;fill:rgb(100%,100%,100%);fill-opacity:1;" d="M 53.695312 19.789062 L 54.066406 19.257812 L 54.421875 20.351562 C 55.195312 22.734375 55.226562 25 54.4375 26.679688 C 54.445312 26.804688 54.445312 26.9375 54.429688 27.070312 L 54.421875 27.132812 L 53.132812 30.6875 L 52.992188 30.792969 C 52.335938 31.289062 51.625 31.597656 50.863281 31.71875 L 50.640625 32.71875 C 50.890625 32.824219 51.1875 32.9375 51.550781 33.070312 C 52.117188 33.28125 52.789062 33.53125 53.539062 33.867188 C 55.054688 34.546875 56.914062 35.585938 58.992188 37.414062 C 61.742188 39.265625 62.777344 41.867188 62.339844 44.3125 C 62.898438 46.035156 61.226562 47.359375 60.816406 47.476562 C 57.179688 48.484375 53.234375 47.34375 49.734375 44.5625 L 49.6875 44.8125 C 49.570312 45.429688 49.40625 46.242188 49.128906 46.820312 C 49.066406 46.964844 48.917969 47.136719 48.621094 47.257812 L 36.117188 55.273438 L 25.625 48.546875 C 23.367188 48.324219 20.515625 48.015625 18.917969 47.273438 C 16.71875 46.390625 14.738281 44.875 14.324219 44.269531 C 12.835938 41.601562 13.539062 36.679688 17.097656 34.773438 C 17.171875 33.132812 17.734375 32.550781 18.585938 31.945312 C 18.96875 30.273438 20.761719 29.085938 22.078125 28.914062 C 23.195312 27.640625 23.851562 27.085938 25.195312 26.964844 C 26.066406 26.320312 27.703125 25.90625 29.089844 25.769531 C 29.015625 25.308594 29.015625 24.90625 29.097656 24.589844 C 29.1875 24.257812 29.386719 24.015625 29.648438 23.898438 C 29.664062 23.332031 29.683594 22.789062 29.726562 22.269531 C 29.789062 21.578125 29.90625 20.890625 30.160156 20.261719 C 30.648438 19.054688 31.601562 18.160156 33.320312 17.675781 L 32.765625 12.285156 L 37.25 12.195312 L 37.425781 12.460938 C 38.671875 14.347656 39.101562 16.203125 39.226562 17.914062 C 41.453125 18.757812 42.148438 21.042969 42.046875 23.765625 C 42.289062 23.917969 42.460938 24.179688 42.539062 24.359375 C 42.71875 24.773438 42.792969 25.335938 42.796875 25.875 C 42.800781 26.421875 42.730469 27.019531 42.554688 27.515625 C 42.460938 27.789062 42.296875 28.125 42.023438 28.359375 C 42.21875 28.398438 42.398438 28.4375 42.578125 28.492188 C 42.933594 28.609375 43.265625 28.78125 43.589844 29.0625 C 44.429688 29.179688 44.980469 29.421875 45.75 29.882812 C 45.890625 29.914062 46.039062 29.949219 46.1875 29.992188 L 46.222656 30 C 45.898438 29.5625 45.667969 29.0625 45.5625 28.515625 L 45.546875 28.445312 L 45.777344 25.085938 C 45.132812 23.234375 45.296875 21.195312 46.179688 18.992188 L 46.578125 18.011719 L 46.945312 18.53125 C 47.054688 18.03125 47.242188 17.523438 47.515625 17.015625 L 47.882812 16.328125 L 48.1875 16.632812 C 48.183594 16.472656 48.179688 16.3125 48.179688 16.15625 C 48.179688 15.804688 48.179688 15.445312 48.15625 15.050781 C 48.132812 14.671875 48.085938 14.265625 47.984375 13.820312 L 47.746094 12.6875 L 48.796875 13.171875 C 49.875 13.671875 50.71875 14.6875 51.367188 16.117188 L 51.546875 15.179688 L 52.332031 16.3125 C 53.066406 17.367188 53.519531 18.527344 53.695312 19.789062 "/>
</g>
<path style=" stroke:none;fill-rule:evenodd;fill:rgb(36.862745%,9.019608%,92.156863%);fill-opacity:1;" d="M 36.117188 54.589844 L 48.601562 46.585938 L 23.628906 46.585938 Z M 36.117188 54.589844 "/>
<path style=" stroke:none;fill-rule:evenodd;fill:rgb(92.941176%,45.882353%,10.980392%);fill-opacity:1;" d="M 53.164062 27.53125 C 54.558594 26.085938 54.828125 23.46875 53.875 20.53125 L 53.183594 21.507812 C 53.285156 19.675781 52.84375 18.054688 51.859375 16.640625 L 51.546875 18.320312 C 50.851562 15.839844 49.851562 14.296875 48.554688 13.695312 C 48.960938 15.621094 48.535156 16.792969 49.015625 18.28125 L 48.023438 17.285156 C 47.453125 18.363281 47.28125 19.382812 47.515625 20.335938 L 46.71875 19.210938 C 45.710938 21.703125 45.710938 23.898438 46.71875 25.804688 L 53.164062 27.53125 "/>
<path style=" stroke:none;fill-rule:evenodd;fill:rgb(100%,100%,100%);fill-opacity:1;" d="M 52.59375 26.203125 C 53.25 25.46875 53.316406 23.796875 52.90625 22.867188 L 52.25 24.335938 C 52.140625 22.765625 51.695312 21.648438 51.117188 20.945312 C 51.050781 22.257812 50.867188 22.945312 50.566406 23 C 50.304688 21.460938 49.886719 20.40625 49.304688 19.84375 C 49.304688 21.734375 49.132812 22.835938 48.777344 23.15625 L 48.277344 22.445312 C 47.640625 23.304688 47.628906 24.320312 47.882812 25.125 L 52.59375 26.203125 "/>
<path style=" stroke:none;fill-rule:evenodd;fill:rgb(36.862745%,9.019608%,92.156863%);fill-opacity:1;" d="M 50.386719 31.1875 L 47.617188 43.734375 C 47.183594 43.921875 46.71875 43.871094 46.226562 43.578125 L 47.695312 30.59375 C 46.902344 30.089844 46.300781 29.304688 46.132812 28.40625 L 46.359375 25.007812 C 47.097656 23.113281 54.171875 24.628906 53.855469 26.992188 L 52.648438 30.332031 C 51.949219 30.855469 51.195312 31.140625 50.386719 31.1875 "/>
<path style=" stroke:none;fill-rule:evenodd;fill:rgb(36.862745%,9.019608%,92.156863%);fill-opacity:1;" d="M 41.3125 28.84375 L 41.328125 28.0625 C 42.585938 27.921875 42.414062 23.632812 41.4375 24.308594 C 41.671875 21.214844 40.953125 18.976562 38.671875 18.335938 C 38.585938 16.585938 38.210938 14.699219 36.945312 12.777344 L 33.40625 12.851562 L 33.945312 18.113281 C 30.15625 18.945312 30.3125 21.476562 30.210938 24.445312 C 29.671875 24.21875 29.414062 24.84375 29.792969 26.304688 C 28.242188 26.351562 26.203125 26.835938 25.414062 27.527344 C 24.128906 27.601562 23.609375 28.03125 22.359375 29.46875 C 21.1875 29.496094 19.328125 30.695312 19.109375 32.28125 C 18.203125 32.914062 17.671875 33.320312 17.667969 35.132812 C 14.179688 36.742188 13.414062 41.457031 14.816406 43.96875 C 15.132812 44.429688 16.984375 45.875 19.148438 46.742188 C 21.4375 47.820312 26.742188 47.960938 28.75 48.328125 L 32.914062 50.464844 C 34.570312 50.609375 36.5 51.148438 38.304688 50.453125 C 39.09375 50.152344 39.046875 48.796875 39.796875 48.398438 C 42.457031 46.992188 48.351562 47.160156 48.601562 46.585938 C 49.078125 45.578125 49.242188 43.601562 49.398438 43.53125 C 52.972656 46.660156 57.015625 47.929688 60.660156 46.921875 C 60.914062 46.851562 62.289062 45.710938 61.742188 44.363281 C 62.207031 42.113281 61.304688 39.648438 58.640625 37.871094 C 54.558594 34.265625 51.375 33.8125 49.976562 33.039062 C 49.183594 31.445312 49 32.207031 47.414062 31.601562 C 46.996094 30.75 46.148438 30.5625 45.535156 30.429688 C 44.703125 29.921875 44.207031 29.707031 43.332031 29.617188 C 42.726562 29.015625 42.128906 28.949219 41.3125 28.84375 "/>
<path style=" stroke:none;fill-rule:evenodd;fill:rgb(100%,100%,100%);fill-opacity:1;" d="M 38.796875 24.351562 C 37.320312 24.40625 36.640625 25.175781 35.789062 25.828125 C 34.726562 25.1875 33.953125 24.851562 33.460938 24.828125 C 33.828125 25.65625 35.492188 25.929688 35.535156 26.40625 L 35.535156 28.273438 C 35.226562 28.722656 35.472656 29.390625 36.402344 29.257812 C 36.460938 29.210938 37.007812 28.824219 37.007812 28.824219 C 37.390625 28.992188 36.640625 29.320312 36.347656 29.617188 L 35.859375 29.757812 L 35.859375 30.246094 L 36.203125 30.140625 C 36.65625 30.351562 37.566406 30.28125 37.664062 30.460938 C 37.53125 30.550781 36.867188 30.605469 35.824219 30.585938 C 35.484375 30.609375 35.710938 31.191406 36.023438 31.15625 C 36.390625 31.210938 36.726562 31.171875 37.039062 31.03125 L 37.246094 31.308594 C 35.09375 31.257812 35.214844 32.335938 35.46875 32.875 C 35.867188 33.265625 36.292969 33.230469 36.90625 32.914062 C 37.070312 32.789062 37.1875 32.511719 37.269531 32.085938 C 37.382812 32.292969 37.414062 32.507812 37.367188 32.617188 C 37.890625 32.300781 38.53125 31.476562 39.363281 30.515625 C 39.539062 29.761719 39.574219 29.039062 39.46875 28.355469 C 39.1875 28.632812 38.886719 28.773438 38.570312 28.789062 C 39.148438 28.257812 39.523438 27.761719 39.6875 27.304688 C 39.800781 26.542969 39.804688 25.871094 39.699219 25.292969 C 39.507812 24.65625 39.289062 24.335938 38.796875 24.351562 "/>
<path style=" stroke:none;fill-rule:evenodd;fill:rgb(100%,100%,100%);fill-opacity:1;" d="M 33.828125 27.320312 C 33.445312 27.273438 33.078125 27.054688 32.71875 26.65625 C 32.765625 27.273438 32.875 27.671875 33.054688 27.847656 L 33.835938 28.28125 L 33.828125 27.320312 "/>
<path style=" stroke:none;fill-rule:evenodd;fill:rgb(100%,100%,100%);fill-opacity:1;" d="M 34.25 28.820312 L 33.710938 29.296875 C 33.523438 29.625 33.464844 29.992188 33.53125 30.414062 L 34.054688 30.730469 C 33.945312 30.136719 34.011719 29.5 34.25 28.820312 "/>
<path style=" stroke:none;fill-rule:evenodd;fill:rgb(100%,100%,100%);fill-opacity:1;" d="M 33.59375 26.265625 L 33.128906 26.304688 C 33.53125 26.839844 34.007812 27.078125 34.777344 26.730469 L 34.488281 26.515625 C 34.25 27.011719 33.417969 26.882812 33.59375 26.265625 "/>
<path style=" stroke:none;fill-rule:evenodd;fill:rgb(100%,100%,100%);fill-opacity:1;" d="M 30.382812 25.273438 L 30.535156 27.273438 C 30.242188 26.773438 30.039062 25.574219 30.046875 24.9375 C 30.214844 24.828125 30.328125 24.9375 30.382812 25.273438 "/>
<path style=" stroke:none;fill-rule:evenodd;fill:rgb(100%,100%,100%);fill-opacity:1;" d="M 25.96875 28.136719 C 29.039062 28.28125 30.515625 30.300781 32.546875 32.632812 L 34.308594 33.976562 C 33.453125 34.789062 33.648438 35.953125 34.742188 36.757812 C 29.726562 35.421875 23.765625 32.175781 20.265625 32.175781 C 21.746094 29.648438 29.617188 34.625 32.503906 35.421875 C 30.375 33.871094 27.378906 31.726562 23.265625 29.867188 C 25.753906 29.21875 31.0625 34.050781 33.335938 34.84375 C 30.589844 32.539062 29.726562 30.289062 25.96875 28.136719 "/>
<path style=" stroke:none;fill-rule:evenodd;fill:rgb(100%,100%,100%);fill-opacity:1;" d="M 39.433594 31.09375 C 38.566406 32.3125 37.65625 33.125 36.710938 33.527344 C 37.234375 33.601562 37.191406 33.765625 37.917969 34.414062 C 38.375 34.148438 38.882812 33.039062 39.433594 31.09375 "/>
<path style=" stroke:none;fill-rule:evenodd;fill:rgb(100%,100%,100%);fill-opacity:1;" d="M 37.703125 18.945312 C 37.085938 19.445312 36.847656 19.824219 36.582031 20.492188 L 35.859375 20.492188 L 35.859375 25.398438 C 36.820312 24.371094 38.109375 23.625 39.722656 24.027344 C 40.265625 24.386719 40.347656 25.453125 40.226562 26.984375 L 40.011719 31.023438 L 40.695312 29.6875 L 40.914062 23.632812 C 41.007812 20.578125 40.25 19.257812 37.703125 18.945312 "/>
<path style=" stroke:none;fill-rule:evenodd;fill:rgb(36.862745%,9.019608%,92.156863%);fill-opacity:1;" d="M 39.101562 25.539062 C 37.519531 25.367188 37.109375 26.164062 36.664062 26.273438 L 36.359375 26.027344 L 36.390625 26.945312 C 36.570312 27.21875 37.0625 27.078125 37.367188 27.074219 C 37.109375 26.980469 36.921875 26.851562 36.816406 26.695312 L 37.144531 26.585938 C 37.304688 27.0625 38.09375 27.050781 38.179688 26.472656 L 38.960938 26.617188 C 38.804688 26.414062 38.515625 26.273438 38.09375 26.203125 C 38.148438 26.023438 38.484375 25.804688 39.101562 25.539062 "/>
<path style=" stroke:none;fill-rule:evenodd;fill:rgb(100%,100%,100%);fill-opacity:1;" d="M 35.054688 28.5 C 34.992188 28.742188 35.09375 28.929688 35.195312 29.074219 C 34.898438 29.0625 34.65625 29.011719 34.648438 28.789062 C 34.640625 28.652344 34.78125 28.515625 35.054688 28.5 "/>
<path style=" stroke:none;fill-rule:evenodd;fill:rgb(100%,100%,100%);fill-opacity:1;" d="M 33.910156 13.429688 L 35.570312 14.328125 L 36.09375 19.484375 L 36.582031 13.355469 L 33.910156 13.429688 "/>
<path style=" stroke:none;fill-rule:evenodd;fill:rgb(100%,100%,100%);fill-opacity:1;" d="M 37.015625 14.109375 L 36.382812 19.988281 C 36.882812 18.496094 37.515625 17.882812 38.28125 18.148438 C 38.179688 16.773438 37.757812 15.421875 37.015625 14.109375 "/>
<path style=" stroke:none;fill-rule:evenodd;fill:rgb(100%,100%,100%);fill-opacity:1;" d="M 41.65625 24.820312 C 41.445312 24.792969 41.203125 25.820312 41.078125 27.328125 C 41.601562 25.324219 41.625 26.59375 41.871094 25.578125 C 41.925781 25.070312 41.835938 24.984375 41.65625 24.820312 "/>
<path style=" stroke:none;fill-rule:evenodd;fill:rgb(36.862745%,9.019608%,92.156863%);fill-opacity:1;" d="M 35.535156 21.429688 C 36.96875 21.265625 38.902344 21.648438 41.058594 23.773438 C 39.796875 21.070312 36.800781 20.554688 35.644531 20.820312 L 35.535156 21.429688 "/>
<path style=" stroke:none;fill-rule:evenodd;fill:rgb(100%,100%,100%);fill-opacity:1;" d="M 18.390625 35.636719 C 15.71875 37.511719 14.640625 40.101562 15.46875 43.0625 C 19.242188 46.515625 23.335938 45.984375 29.6875 47.320312 L 31.421875 42.882812 C 27.253906 42.253906 25.789062 39.675781 19.183594 38.164062 C 20.125 37.984375 23.453125 38.4375 24.996094 39.3125 C 25.464844 38.648438 25.367188 37.882812 24.707031 37.007812 C 23.828125 35.71875 19.796875 35.382812 18.390625 35.636719 "/>
<path style=" stroke:none;fill-rule:evenodd;fill:rgb(100%,100%,100%);fill-opacity:1;" d="M 50.398438 35.054688 L 46.289062 34.953125 C 45.714844 35.246094 45.679688 35.777344 46.1875 36.550781 L 49.039062 36.71875 C 49.265625 36.929688 49.265625 37.085938 49.039062 37.195312 L 46.164062 37.023438 C 45.648438 37.460938 45.761719 38.492188 46.328125 38.628906 L 48.664062 38.828125 C 48.871094 39.109375 48.847656 39.28125 48.597656 39.328125 L 46.238281 39.152344 C 45.6875 39.628906 45.734375 40.09375 46.382812 40.539062 L 48.328125 40.757812 C 48.554688 40.90625 48.519531 41.03125 48.21875 41.132812 L 46.289062 41.132812 C 45.765625 41.359375 45.820312 41.960938 46.34375 42.523438 L 49.09375 42.640625 C 49.757812 42.617188 50.171875 41.5 49.703125 40.882812 C 50.421875 40.132812 50.421875 39.578125 50.046875 39.0625 C 50.605469 38.609375 50.691406 37.585938 50.265625 37.0625 C 50.679688 36.210938 50.8125 35.445312 50.398438 35.054688 "/>
<path style=" stroke:none;fill-rule:evenodd;fill:rgb(100%,100%,100%);fill-opacity:1;" d="M 51.257812 37.476562 C 52.914062 37.664062 55.328125 38.34375 57.773438 38.992188 C 59.617188 39.535156 60.601562 41.1875 60.726562 43.953125 C 61.15625 46.335938 59.210938 46.773438 54.882812 45.273438 C 52.539062 43.789062 52.085938 42.320312 52.320312 41.585938 C 54.9375 42.515625 57.023438 43.289062 57.460938 43 L 51.21875 40.25 C 51.390625 39.824219 51.488281 39.394531 51.109375 39.007812 C 51.390625 38.664062 51.425781 38.015625 51.257812 37.476562 "/>
<path style=" stroke:none;fill-rule:evenodd;fill:rgb(100%,100%,100%);fill-opacity:1;" d="M 46.742188 33.472656 L 45.480469 33.335938 L 44.046875 34.277344 C 44.015625 35.03125 44.457031 35.304688 45.375 35.09375 L 45.75 34.519531 L 46.742188 34.519531 L 46.742188 33.472656 "/>
<path style=" stroke:none;fill-rule:evenodd;fill:rgb(36.862745%,9.019608%,92.156863%);fill-opacity:1;" d="M 59.9375 46.273438 C 59.15625 45.386719 57.894531 44.6875 56.148438 44.179688 C 57.835938 45.480469 58.726562 46.226562 58.820312 46.417969 L 59.9375 46.273438 "/>
<path style=" stroke:none;fill-rule:nonzero;fill:rgb(100%,100%,100%);fill-opacity:1;" d="M 37.523438 26.5625 C 37.523438 26.484375 37.582031 26.425781 37.65625 26.425781 C 37.730469 26.425781 37.789062 26.484375 37.789062 26.5625 C 37.789062 26.632812 37.730469 26.695312 37.65625 26.695312 C 37.582031 26.695312 37.523438 26.632812 37.523438 26.5625 "/>
<path style=" stroke:none;fill-rule:nonzero;fill:rgb(100%,100%,100%);fill-opacity:1;" d="M 33.789062 26.453125 C 33.789062 26.375 33.851562 26.320312 33.925781 26.320312 C 34 26.320312 34.0625 26.375 34.0625 26.453125 C 34.0625 26.527344 34 26.585938 33.925781 26.585938 C 33.851562 26.585938 33.789062 26.527344 33.789062 26.453125 "/>
<path style=" stroke:none;fill-rule:evenodd;fill:rgb(100%,100%,100%);fill-opacity:1;" d="M 18.96875 34.699219 C 19.398438 31.8125 23.84375 32.890625 26.203125 35.457031 C 23.476562 34.492188 20.84375 34.046875 18.96875 34.699219 "/>
<path style=" stroke:none;fill-rule:evenodd;fill:rgb(100%,100%,100%);fill-opacity:1;" d="M 41.292969 29.851562 C 41.292969 30.929688 40.179688 31.882812 40.179688 31.882812 C 39.9375 32.96875 39.34375 33.996094 37.828125 35.222656 C 37.84375 35.710938 37.972656 36.214844 39.976562 35.945312 C 41.75 36.34375 43.761719 36.4375 44.578125 36.007812 C 43.765625 35.636719 43.28125 35.125 43.546875 34.375 L 45.28125 32.949219 L 45.953125 32.949219 C 46.085938 32.453125 45.984375 31.578125 45.023438 31.238281 C 44.472656 30.816406 43.746094 30.53125 43 30.617188 C 42.679688 29.980469 42.1875 29.761719 41.292969 29.851562 "/>
<path style=" stroke:none;fill-rule:evenodd;fill:rgb(100%,100%,100%);fill-opacity:1;" d="M 53.488281 26.914062 C 52.75 24.917969 48.210938 24.4375 46.789062 25.375 L 46.699219 27.757812 C 48.304688 26.992188 51.789062 27.664062 52.605469 29.398438 L 53.488281 26.914062 "/>
<path style=" stroke:none;fill-rule:evenodd;fill:rgb(100%,100%,100%);fill-opacity:1;" d="M 49.097656 34.816406 L 50.085938 30.335938 L 49.617188 29.542969 L 49.015625 30.148438 L 48.355469 34.773438 L 49.097656 34.816406 "/>
<path style=" stroke:none;fill-rule:evenodd;fill:rgb(100%,100%,100%);fill-opacity:1;" d="M 52.328125 30.070312 C 52.195312 28.8125 49.273438 27.601562 47.773438 27.992188 C 49.421875 28.351562 51.75 28.914062 51.855469 30.359375 L 52.328125 30.070312 "/>
<path style=" stroke:none;fill-rule:nonzero;fill:rgb(36.862745%,9.019608%,92.156863%);fill-opacity:1;" d="M 51.84375 26.296875 L 50.972656 27.203125 L 51.148438 26.007812 C 51.390625 26.09375 51.625 26.191406 51.84375 26.296875 Z M 50.503906 25.820312 L 49.890625 26.78125 L 49.777344 25.679688 C 50.023438 25.71875 50.265625 25.765625 50.503906 25.820312 Z M 49.296875 25.625 L 48.804688 26.75 L 48.546875 25.589844 C 48.789062 25.589844 49.042969 25.601562 49.296875 25.625 Z M 48.125 25.605469 L 47.664062 26.839844 L 47.375 25.710938 C 47.609375 25.65625 47.859375 25.625 48.125 25.605469 Z M 52.867188 27.046875 L 52.085938 27.828125 L 52.328125 26.582031 C 52.53125 26.71875 52.71875 26.875 52.867188 27.046875 "/>
<path style=" stroke:none;fill-rule:evenodd;fill:rgb(36.862745%,9.019608%,92.156863%);fill-opacity:1;" d="M 42.953125 30.390625 C 42.441406 32.246094 39.757812 34.59375 37.84375 35.925781 C 39.796875 35.273438 42.277344 33.328125 43.492188 30.480469 L 42.953125 30.390625 "/>
<path style=" stroke:none;fill-rule:evenodd;fill:rgb(100%,100%,100%);fill-opacity:1;" d="M 51.4375 34.914062 C 53.40625 35.421875 55.46875 36.671875 57.15625 37.945312 L 51.492188 36.703125 C 51.65625 36.234375 51.757812 35.46875 51.4375 34.914062 "/>
<path style=" stroke:none;fill-rule:evenodd;fill:rgb(100%,100%,100%);fill-opacity:1;" d="M 31.671875 24.855469 L 31.851562 30.375 L 31.382812 30.085938 L 31.273438 25.070312 L 31.671875 24.855469 "/>
<path style=" stroke:none;fill-rule:evenodd;fill:rgb(100%,100%,100%);fill-opacity:1;" d="M 35.140625 21.265625 C 33.890625 21.640625 32.703125 21.996094 31.582031 22.332031 C 32.53125 21.742188 33.726562 21.296875 35.15625 21 L 35.140625 21.265625 "/>
<path style=" stroke:none;fill-rule:evenodd;fill:rgb(100%,100%,100%);fill-opacity:1;" d="M 48.433594 18.953125 C 47.769531 19.898438 47.820312 20.703125 48.59375 21.367188 C 48.671875 20.476562 48.171875 20.160156 48.433594 18.953125 "/>
<path style=" stroke:none;fill-rule:evenodd;fill:rgb(100%,100%,100%);fill-opacity:1;" d="M 46.882812 20.601562 C 46.414062 21.65625 46.617188 22.4375 47.5 22.945312 C 47.40625 22.050781 46.859375 21.835938 46.882812 20.601562 "/>
<path style=" stroke:none;fill-rule:evenodd;fill:rgb(100%,100%,100%);fill-opacity:1;" d="M 50.191406 19.628906 C 50.804688 18.648438 51.492188 17.753906 49.917969 16.710938 C 49.886719 17.605469 50.390625 18.40625 50.191406 19.628906 "/>
<path style=" stroke:none;fill-rule:evenodd;fill:rgb(100%,100%,100%);fill-opacity:1;" d="M 35.679688 30.507812 C 35.5625 30.554688 35.007812 30.546875 34.640625 30.445312 C 35.007812 30.40625 35.417969 30.210938 35.679688 30.507812 "/>
<path style=" stroke:none;fill-rule:nonzero;fill:rgb(100%,100%,100%);fill-opacity:1;" d="M 34.453125 35.339844 C 34.453125 34.628906 35.03125 34.050781 35.742188 34.050781 C 36.457031 34.050781 37.03125 34.628906 37.03125 35.339844 C 37.03125 36.054688 36.457031 36.628906 35.742188 36.628906 C 35.03125 36.628906 34.453125 36.054688 34.453125 35.339844 "/>
<path style=" stroke:none;fill-rule:nonzero;fill:rgb(36.862745%,9.019608%,92.156863%);fill-opacity:1;" d="M 34.777344 35.359375 C 34.777344 34.8125 35.195312 34.363281 35.726562 34.308594 C 35.414062 34.492188 35.210938 34.828125 35.210938 35.214844 C 35.210938 35.796875 35.683594 36.265625 36.265625 36.265625 C 36.304688 36.265625 36.339844 36.265625 36.375 36.265625 C 36.21875 36.359375 36.03125 36.414062 35.835938 36.414062 C 35.25 36.414062 34.777344 35.941406 34.777344 35.359375 "/>
<path style=" stroke:none;fill-rule:evenodd;fill:rgb(100%,100%,100%);fill-opacity:1;" d="M 23.066406 39.964844 L 31.257812 42.804688 L 34.671875 41.1875 L 39.070312 42.054688 C 39.695312 42.65625 39.644531 43.230469 38.929688 43.789062 L 36.90625 43.425781 C 36.617188 43.449219 36.617188 43.640625 36.90625 44 L 38.640625 44.617188 C 39.03125 45.1875 38.984375 45.679688 38.496094 46.09375 L 36.25 45.796875 C 36.03125 45.898438 36.015625 46.039062 36.195312 46.226562 L 38.300781 46.582031 C 38.484375 47.085938 38.265625 47.769531 37.941406 48.132812 L 36.109375 47.996094 C 35.820312 48.089844 35.78125 48.242188 35.992188 48.449219 L 37.804688 48.554688 C 38.121094 49.203125 37.78125 49.734375 37.289062 50.1875 L 33.585938 49.804688 L 29.6875 47.320312 L 22.554688 45.375 L 23.066406 39.964844 "/>
<path style=" stroke:none;fill-rule:evenodd;fill:rgb(36.862745%,9.019608%,92.156863%);fill-opacity:1;" d="M 34.703125 41.515625 C 34 42.089844 33.992188 42.617188 34.671875 43.101562 C 34.515625 42.597656 34.527344 42.070312 34.703125 41.515625 "/>
<path style=" stroke:none;fill-rule:evenodd;fill:rgb(36.862745%,9.019608%,92.156863%);fill-opacity:1;" d="M 34.632812 43.96875 C 33.929688 44.539062 33.917969 45.070312 34.597656 45.554688 C 34.445312 45.050781 34.453125 44.523438 34.632812 43.96875 "/>
<path style=" stroke:none;fill-rule:evenodd;fill:rgb(36.862745%,9.019608%,92.156863%);fill-opacity:1;" d="M 34.777344 46.382812 C 34.074219 46.957031 34.0625 47.484375 34.742188 47.96875 C 34.585938 47.46875 34.601562 46.9375 34.777344 46.382812 "/>
<path style=" stroke:none;fill-rule:evenodd;fill:rgb(36.862745%,9.019608%,92.156863%);fill-opacity:1;" d="M 34.632812 48.078125 C 33.929688 48.652344 33.917969 49.179688 34.597656 49.664062 C 34.445312 49.160156 34.453125 48.632812 34.632812 48.078125 "/>
<path style=" stroke:none;fill-rule:evenodd;fill:rgb(36.862745%,9.019608%,92.156863%);fill-opacity:1;" d="M 23.15625 43.679688 C 21.226562 43.15625 20.519531 42.234375 18.460938 42.703125 C 21.566406 43.351562 27.328125 45.636719 28.484375 45.644531 C 26.476562 44.710938 26.617188 44.617188 23.15625 43.679688 "/>
<path style=" stroke:none;fill-rule:evenodd;fill:rgb(36.862745%,9.019608%,92.156863%);fill-opacity:1;" d="M 30.359375 47.101562 C 31.03125 47.75 31.554688 47.984375 33.261719 48.941406 C 32.695312 48.003906 31.78125 46.992188 30.515625 45.914062 L 30.359375 47.101562 "/>
<path style=" stroke:none;fill-rule:evenodd;fill:rgb(36.862745%,9.019608%,92.156863%);fill-opacity:1;" d="M 44.667969 30.984375 C 44.15625 32.839844 41.765625 34.882812 38.585938 36.25 C 40.523438 35.941406 44.34375 33.65625 45.5625 31.203125 L 44.667969 30.984375 "/>
<path style=" stroke:none;fill-rule:evenodd;fill:rgb(100%,100%,100%);fill-opacity:1;" d="M 40.414062 43.484375 C 42.148438 41.742188 43.140625 42.375 44.34375 39.3125 L 44.273438 37.152344 C 43.257812 39.460938 41.09375 39.820312 40.414062 43.484375 "/>
<path style=" stroke:none;fill-rule:evenodd;fill:rgb(100%,100%,100%);fill-opacity:1;" d="M 39.433594 37.007812 C 36.839844 39.46875 34.144531 39.347656 31.347656 36.648438 C 34.523438 38.117188 37.21875 38.238281 39.433594 37.007812 "/>
<g clip-path="url(#clip4)" clip-rule="nonzero">
<path style=" stroke:none;fill-rule:nonzero;fill:rgb(36.862745%,9.019608%,92.156863%);fill-opacity:1;" d="M 3.210938 34.875 C 1.84375 34.875 0.738281 35.984375 0.738281 37.347656 C 0.738281 38.710938 1.84375 39.820312 3.210938 39.820312 C 4.574219 39.820312 5.679688 38.710938 5.679688 37.347656 C 5.679688 35.984375 4.574219 34.875 3.210938 34.875 "/>
</g>
<g clip-path="url(#clip5)" clip-rule="nonzero">
<path style=" stroke:none;fill-rule:nonzero;fill:rgb(36.862745%,9.019608%,92.156863%);fill-opacity:1;" d="M 71.75 34.875 C 70.382812 34.875 69.277344 35.984375 69.277344 37.347656 C 69.277344 38.710938 70.382812 39.820312 71.75 39.820312 C 73.113281 39.820312 74.21875 38.710938 74.21875 37.347656 C 74.21875 35.984375 73.113281 34.875 71.75 34.875 "/>
</g>
</g>
</svg>
